<svg width="20" height="24" viewBox="0 0 20 24" fill="none" xmlns="http://www.w3.org/2000/svg">
<path d="M16.3086 12.7631C16.3325 10.9104 17.3275 9.15738 18.9059 8.18699C17.9101 6.76488 16.2423 5.86322 14.5071 5.80893C12.6563 5.61467 10.8621 6.91639 9.91901 6.91639C8.95765 6.91639 7.50559 5.82822 5.94196 5.86039C3.90383 5.92624 2.00378 7.08501 1.01219 8.86687C-1.11934 12.5573 0.470592 17.9809 2.51242 20.964C3.53399 22.4247 4.72791 24.0564 6.29013 23.9985C7.81886 23.9351 8.38981 23.0237 10.2351 23.0237C12.0633 23.0237 12.599 23.9985 14.1929 23.9617C15.8333 23.9351 16.8668 22.4945 17.8525 21.02C18.5865 19.9791 19.1513 18.8288 19.526 17.6116C17.5983 16.7962 16.3109 14.8562 16.3086 12.7631Z" fill="white"/>
<path d="M13.298 3.84713C14.1924 2.77343 14.633 1.39335 14.5263 0C13.1599 0.143521 11.8976 0.796601 10.9911 1.82911C10.1047 2.83793 9.64341 4.19372 9.73062 5.53382C11.0976 5.54789 12.4414 4.91252 13.298 3.84713Z" fill="white"/>
</svg>
