<svg width="48" height="48" viewBox="0 0 48 48" fill="none" xmlns="http://www.w3.org/2000/svg">
<path d="M37.8465 20.5C37.3273 20.5 36.9811 20.325 36.635 19.975C35.9426 19.275 35.9426 18.225 36.635 17.525L42.3465 11.75L36.635 5.975C35.9426 5.275 35.9426 4.225 36.635 3.525C37.3273 2.825 38.3657 2.825 39.058 3.525L45.9811 10.525C46.6734 11.225 46.6734 12.275 45.9811 12.975L39.058 19.975C38.7119 20.325 38.3657 20.5 37.8465 20.5Z" fill="#00C386"/>
<path d="M37.8465 44.9995C37.3273 44.9995 36.9811 44.8245 36.635 44.4745C35.9426 43.7745 35.9426 42.7245 36.635 42.0245L42.3465 36.2495L36.635 30.4745C35.9426 29.7745 35.9426 28.7245 36.635 28.0245C37.3273 27.3245 38.3657 27.3245 39.058 28.0245L45.9811 35.0245C46.6734 35.7245 46.6734 36.7745 45.9811 37.4745L39.058 44.4745C38.7119 44.8245 38.3657 44.9995 37.8465 44.9995Z" fill="#F32D50"/>
<path d="M8.42308 38.0005L3.23077 38.0005C2.19231 38.0005 1.5 37.3005 1.5 36.2505C1.5 35.2005 2.19231 34.5005 3.23077 34.5005L8.42308 34.5005C14.1346 34.5005 18.8077 29.7755 18.8077 24.0005C18.8077 16.3005 25.0385 10.0005 32.6538 10.0005L41.3077 10.0005C42.3462 10.0005 43.0385 10.7005 43.0385 11.7505C43.0385 12.8005 42.3462 13.5005 41.3077 13.5005L32.6538 13.5005C26.9423 13.5005 22.2692 18.2255 22.2692 24.0005C22.2692 31.7005 16.0385 38.0005 8.42308 38.0005Z" fill="#00C386"/>
<path d="M16.9038 15.5005C16.3846 15.5005 16.0385 15.3255 15.6923 14.9755C13.7885 13.0505 11.1923 12.0005 8.42308 12.0005L3.23077 12.0005C2.19231 12.0005 1.5 11.3005 1.5 10.2505C1.5 9.20049 2.19231 8.50049 3.23077 8.50049L8.42308 8.50049C12.0577 8.50049 15.5192 9.90049 18.1154 12.5255C18.8077 13.2255 18.8077 14.2755 18.1154 14.9755C17.7692 15.3255 17.4231 15.5005 16.9038 15.5005Z" fill="#F32D50"/>
<path d="M41.3075 37.9998L32.6537 37.9998C29.0191 37.9998 25.5575 36.5998 22.9614 34.1498C22.2691 33.4498 22.2691 32.3998 22.9614 31.6998C23.6537 30.9998 24.6921 30.9998 25.3844 31.6998C27.4614 33.4498 29.8844 34.4998 32.6537 34.4998L41.3075 34.4998C42.346 34.4998 43.0383 35.1998 43.0383 36.2498C43.0383 37.2998 42.346 37.9998 41.3075 37.9998Z" fill="#F32D50"/>
</svg>
