<svg width="48" height="48" viewBox="0 0 48 48" fill="none" xmlns="http://www.w3.org/2000/svg">
<path d="M28.6624 32.9816L31.0319 34.1629C31.7421 34.5707 32.0514 35.4355 31.7702 36.209C31.1444 37.9105 29.9139 39.4715 28.7749 40.8355C28.2546 41.4613 27.3546 41.616 26.6444 41.2082L24.5983 40.0269C23.4733 40.9902 22.1655 41.7566 20.7382 42.2558V44.6183C20.7382 45.434 20.1546 46.1371 19.353 46.2777C17.6233 46.573 15.8093 46.5871 14.0163 46.2777C13.2077 46.1371 12.61 45.441 12.61 44.6183V42.2558C11.1827 41.7496 9.87488 40.9902 8.74988 40.0269L6.70379 41.2011C6.00066 41.609 5.09363 41.4543 4.57332 40.8285C3.43425 39.4644 2.23191 37.9035 1.60613 36.209C1.32488 35.4425 1.63425 34.5777 2.34441 34.1629L4.68582 32.9816C4.4116 31.5121 4.4116 30.0004 4.68582 28.5238L2.34441 27.3355C1.63425 26.9277 1.31785 26.0629 1.60613 25.2965C2.23191 23.5949 3.43425 22.034 4.57332 20.6699C5.09363 20.0441 5.99363 19.8894 6.70379 20.2972L8.74988 21.4785C9.87488 20.5152 11.1827 19.7488 12.61 19.2496V16.8801C12.61 16.0715 13.1866 15.3683 13.9882 15.2277C15.7178 14.9324 17.5389 14.9183 19.3319 15.2207C20.1405 15.3613 20.7382 16.0574 20.7382 16.8801V19.2426C22.1655 19.7488 23.4733 20.5082 24.5983 21.4715L26.6444 20.2902C27.3475 19.8824 28.2546 20.0371 28.7749 20.6629C29.9139 22.0269 31.1093 23.5879 31.735 25.2894C32.0163 26.0558 31.7421 26.9207 31.0319 27.3355L28.6624 28.5168C28.9366 29.9933 28.9366 31.505 28.6624 32.9816ZM20.3936 34.4652C24.5561 29.0511 18.3757 22.8707 12.9616 27.0332C8.7991 32.4472 14.9796 38.6277 20.3936 34.4652Z" fill="#619BF8"/>
<path d="M44.2799 13.486L45.9182 14.2734C46.4092 14.5453 46.6231 15.1217 46.4287 15.6373C45.996 16.7715 45.1453 17.812 44.3577 18.7212C43.998 19.1383 43.3757 19.2415 42.8847 18.9696L41.4701 18.1822C40.6922 18.8243 39.788 19.3352 38.8012 19.668V21.2427C38.8012 21.7864 38.3977 22.2551 37.8435 22.3488C36.6476 22.5457 35.3934 22.5551 34.1537 22.3488C33.5946 22.2551 33.1814 21.7911 33.1814 21.2427V19.668C32.1946 19.3305 31.2904 18.8243 30.5125 18.1822L29.0979 18.9649C28.6117 19.2368 27.9846 19.1337 27.6249 18.7165C26.8373 17.8073 26.006 16.7668 25.5734 15.6373C25.3789 15.1264 25.5928 14.5499 26.0838 14.2734L27.7027 13.486C27.5131 12.5065 27.5131 11.4988 27.7027 10.5146L26.0838 9.72251C25.5928 9.45067 25.3741 8.87419 25.5734 8.36333C26.006 7.22911 26.8373 6.18864 27.6249 5.27939C27.9846 4.86226 28.6069 4.75915 29.0979 5.03099L30.5125 5.81838C31.2904 5.17628 32.1946 4.66542 33.1814 4.33265V2.75319C33.1814 2.2142 33.5801 1.74552 34.1343 1.65178C35.3302 1.45494 36.5893 1.44556 37.8289 1.6471C38.388 1.74083 38.8012 2.20483 38.8012 2.75319V4.32796C39.788 4.66542 40.6922 5.17159 41.4701 5.81369L42.8847 5.0263C43.3709 4.75447 43.998 4.85758 44.3577 5.2747C45.1453 6.18395 45.9717 7.22442 46.4044 8.35864C46.5988 8.8695 46.4092 9.44598 45.9182 9.72251L44.2799 10.5099C44.4695 11.4941 44.4695 12.5018 44.2799 13.486ZM38.563 14.475C41.4409 10.8661 37.1678 6.74637 33.4245 9.52097C30.5466 13.1298 34.8197 17.2496 38.563 14.475Z" fill="#00C386"/>
</svg>
