<svg width="32" height="32" viewBox="0 0 32 32" fill="none" xmlns="http://www.w3.org/2000/svg">
<path d="M23.8682 6.66468C24.1428 7.32871 24.6698 7.85653 25.3334 8.1321L27.6603 9.09597C28.3244 9.37104 28.852 9.89866 29.127 10.5627C29.4021 11.2268 29.4021 11.973 29.127 12.6371L28.1639 14.9624C27.8887 15.6268 27.8883 16.3737 28.1648 17.0378L29.1262 19.3624C29.2626 19.6913 29.3328 20.0439 29.3329 20.3999C29.3329 20.756 29.2628 21.1086 29.1266 21.4375C28.9903 21.7665 28.7906 22.0654 28.5388 22.3171C28.287 22.5688 27.988 22.7685 27.659 22.9046L25.3338 23.8678C24.6698 24.1424 24.142 24.6694 23.8664 25.333L22.9026 27.66C22.6275 28.3241 22.0999 28.8517 21.4359 29.1268C20.7718 29.4019 20.0257 29.4019 19.3616 29.1268L17.0364 28.1636C16.3723 27.8892 15.6264 27.8898 14.9628 28.1652L12.6359 29.1277C11.9722 29.4021 11.2267 29.4019 10.5632 29.127C9.89964 28.8522 9.37234 28.3252 9.09708 27.6618L8.13296 25.3341C7.8584 24.6701 7.33139 24.1423 6.6678 23.8667L4.34088 22.9028C3.67711 22.6279 3.14967 22.1006 2.87451 21.4369C2.59934 20.7732 2.59897 20.0274 2.87347 19.3634L3.83662 17.0381C4.111 16.374 4.11044 15.6281 3.83506 14.9644L2.8733 12.6357C2.73694 12.3068 2.66672 11.9542 2.66667 11.5982C2.66661 11.2421 2.73671 10.8895 2.87296 10.5606C3.00922 10.2316 3.20895 9.93274 3.46076 9.681C3.71256 9.42927 4.0115 9.22963 4.34049 9.09347L6.66573 8.13029C7.32916 7.85596 7.85665 7.3296 8.1324 6.66674L9.09624 4.33975C9.37131 3.67566 9.8989 3.14805 10.563 2.87297C11.227 2.5979 11.9732 2.5979 12.6372 2.87297L14.9625 3.83615C15.6265 4.11055 16.3724 4.10999 17.0361 3.8346L19.364 2.87447C20.0279 2.59955 20.7739 2.5996 21.4378 2.87462C22.1018 3.14964 22.6293 3.67711 22.9044 4.34102L23.8685 6.66871L23.8682 6.66468Z" fill="#DFFBE9"/>
<path d="M12 16L14.6667 18.6667L20.6667 12.6667M23.8682 6.66468C24.1428 7.32871 24.6698 7.85653 25.3334 8.1321L27.6603 9.09597C28.3244 9.37104 28.852 9.89866 29.127 10.5627C29.4021 11.2268 29.4021 11.973 29.127 12.6371L28.1639 14.9624C27.8887 15.6268 27.8883 16.3737 28.1648 17.0378L29.1262 19.3624C29.2626 19.6913 29.3328 20.0439 29.3329 20.3999C29.3329 20.756 29.2628 21.1086 29.1266 21.4375C28.9903 21.7665 28.7906 22.0654 28.5388 22.3171C28.287 22.5688 27.988 22.7685 27.659 22.9046L25.3338 23.8678C24.6698 24.1424 24.142 24.6694 23.8664 25.333L22.9026 27.66C22.6275 28.3241 22.0999 28.8517 21.4359 29.1268C20.7718 29.4019 20.0257 29.4019 19.3616 29.1268L17.0364 28.1636C16.3723 27.8892 15.6264 27.8898 14.9628 28.1652L12.6359 29.1277C11.9722 29.4021 11.2267 29.4019 10.5632 29.127C9.89964 28.8522 9.37234 28.3252 9.09708 27.6618L8.13296 25.3341C7.8584 24.6701 7.33139 24.1423 6.6678 23.8667L4.34088 22.9028C3.67711 22.6279 3.14967 22.1006 2.87451 21.4369C2.59934 20.7732 2.59897 20.0274 2.87347 19.3634L3.83662 17.0381C4.111 16.374 4.11044 15.6281 3.83506 14.9644L2.8733 12.6357C2.73694 12.3068 2.66672 11.9542 2.66667 11.5982C2.66661 11.2421 2.73671 10.8895 2.87296 10.5606C3.00922 10.2316 3.20895 9.93274 3.46076 9.681C3.71256 9.42927 4.0115 9.22963 4.34049 9.09347L6.66573 8.13029C7.32916 7.85596 7.85665 7.3296 8.1324 6.66674L9.09624 4.33975C9.37131 3.67566 9.8989 3.14805 10.563 2.87297C11.227 2.5979 11.9732 2.5979 12.6372 2.87297L14.9625 3.83615C15.6265 4.11055 16.3724 4.10999 17.0361 3.8346L19.364 2.87447C20.0279 2.59955 20.7739 2.5996 21.4378 2.87462C22.1018 3.14964 22.6293 3.67711 22.9044 4.34102L23.8685 6.66871L23.8682 6.66468Z" stroke="#039954" stroke-width="2.66667" stroke-linecap="round" stroke-linejoin="round"/>
</svg>
