<svg width="23" height="23" viewBox="0 0 23 23" fill="none" xmlns="http://www.w3.org/2000/svg">
<path d="M21.2184 0.229614C22.0532 0.229614 22.7898 0.966221 22.7898 1.85015V20.6582C22.7898 21.5421 22.0532 22.2296 21.2184 22.2296H2.31212C1.47729 22.2296 0.789795 21.5421 0.789795 20.6582V1.85015C0.789795 0.966221 1.47729 0.229614 2.31212 0.229614H21.2184ZM7.41926 19.0868V8.62694H4.17819V19.0868H7.41926ZM5.79872 7.15372C6.82997 7.15372 7.6648 6.3189 7.6648 5.28765C7.6648 4.2564 6.82997 3.37247 5.79872 3.37247C4.71837 3.37247 3.88355 4.2564 3.88355 5.28765C3.88355 6.3189 4.71837 7.15372 5.79872 7.15372ZM19.6469 19.0868V13.3412C19.6469 10.5421 19.0085 8.33229 15.7184 8.33229C14.1469 8.33229 13.0666 9.21622 12.6246 10.051H12.5755V8.62694H9.48176V19.0868H12.7228V13.9305C12.7228 12.5555 12.9684 11.2296 14.6871 11.2296C16.3568 11.2296 16.3568 12.801 16.3568 13.9796V19.0868H19.6469Z" fill="black"/>
</svg>
