<svg width="48" height="48" viewBox="0 0 48 48" fill="none" xmlns="http://www.w3.org/2000/svg">
<path d="M42 27.5692V21V6H39L32 12L21 22L16 17L6 25V27.5692C6 29.1202 6 29.8956 6.65396 30.488C7.2292 31.009 8.14708 31.4327 9.27606 31.6982C10.5595 32 12.2397 32 15.6 32H32.4C35.7603 32 37.4405 32 38.7239 31.6982C39.8529 31.4327 40.7708 31.009 41.346 30.488C42 29.8956 42 29.1202 42 27.5692Z" fill="#D7F5E2"/>
<path d="M32 12L22.684 21.5101C22.3446 21.8566 22.1749 22.0298 21.9792 22.0947C21.807 22.1518 21.6216 22.1518 21.4494 22.0947C21.2537 22.0298 21.084 21.8566 20.7445 21.5101L17.5412 18.2399C17.2017 17.8934 17.032 17.7202 16.8363 17.6553C16.6641 17.5982 16.4787 17.5982 16.3066 17.6553C16.1108 17.7202 15.9411 17.8934 15.6017 18.2399L8 26M32 12H25.1429M32 12V19" stroke="#619BF8" stroke-width="4" stroke-linecap="round" stroke-linejoin="round"/>
<path d="M24 32V42M24 32L36 42M24 32L12 42" stroke="black" stroke-width="4" stroke-linecap="round" stroke-linejoin="round"/>
<path d="M42 6V22.4C42 25.7603 42 27.4405 41.346 28.7239C40.7708 29.8529 39.8529 30.7708 38.7239 31.346C37.4405 32 35.7603 32 32.4 32H15.6C12.2397 32 10.5595 32 9.27606 31.346C8.14708 30.7708 7.2292 29.8529 6.65396 28.7239C6 27.4405 6 25.7603 6 22.4V6M44 6H4" stroke="#00A16F" stroke-width="4" stroke-linecap="round" stroke-linejoin="round"/>
</svg>
