<svg width="48" height="48" viewBox="0 0 48 48" fill="none" xmlns="http://www.w3.org/2000/svg">
<path fill-rule="evenodd" clip-rule="evenodd" d="M26.0159 4.5H18.8161L6.30487 13.6986L12.2064 31.1524H16.8095L11.7343 15.2317L26.0159 4.5ZM43.3665 21.0103L41.0058 13.6986L28.4946 4.5L13.2687 15.7035L14.8031 20.3028C20.196 16.5723 28.4946 10.1607 28.4946 10.1607L43.3665 21.0103ZM26.5477 13.4623L26.5476 13.4624L26.5475 13.4624C25.9308 13.9528 25.3142 14.4431 24.5996 14.9959L38.6452 24.9021L33.2158 42.0021L39.2354 37.5207L43.7207 22.8973L28.4946 11.9296C27.7804 12.4821 27.164 12.9722 26.5477 13.4623L26.5477 13.4623ZM32.8617 22.5435L36.9928 25.3738L31.3273 43.1814H16.8095L9.96381 38.818H27.6684L32.8617 22.5435ZM26.7241 37.2849L28.0225 32.6855H11.3802L5.24258 15.7035L3 22.8973L7.83923 37.2849H26.7241Z" fill="black"/>
</svg>
