<svg width="180" height="32" viewBox="0 0 180 32" fill="none" xmlns="http://www.w3.org/2000/svg">
<path fill-rule="evenodd" clip-rule="evenodd" d="M83.9841 14.9495C83.9229 13.1194 83.5637 11.5027 82.907 10.0996C82.192 8.56319 81.1769 7.38938 79.8616 6.57823C78.5556 5.75752 77.0544 5.34717 75.358 5.34717C73.6612 5.34717 72.1552 5.7623 70.8399 6.59255C69.5342 7.41326 68.5191 8.60137 67.7948 10.1569C67.1495 11.5602 66.7956 13.1578 66.7326 14.9495H70.349C70.4211 12.9222 70.8658 11.339 71.6836 10.1998C72.5697 8.96876 73.7948 8.35323 75.358 8.35323C76.9593 8.35323 78.1935 8.96876 79.0609 10.1998C79.8656 11.3292 80.3009 12.9125 80.3674 14.9495H83.9841ZM50.683 16.9748L46.42 5.63345H41.7305V26.4756H45.3335V19.6046L44.9762 10.4289L49.1855 21.4416L50.683 16.9748ZM128.215 14.3081H134.965V17.214H128.215V26.4756H124.598V5.63345H128.215V14.3081ZM141.126 26.4756H137.718V5.63345H141.126V26.4756ZM51.1063 26.4672L55.3562 13.7917L58.4157 5.63345H63.0908V26.4756H59.4878V19.6046L59.8454 10.4145L53.6971 26.4756H51.1095L51.1063 26.4672ZM82.9356 21.9808C83.5103 20.7206 83.8511 19.2956 83.9574 17.7057H80.3415C80.2227 19.5151 79.8007 20.9305 79.0753 21.9522C78.2172 23.1737 76.9879 23.7844 75.3865 23.7844C73.8041 23.7844 72.5652 23.1593 71.6692 21.9092C70.9312 20.8685 70.5005 19.4674 70.3768 17.7057H66.7575C66.8646 19.2969 67.2149 20.7267 67.8089 21.9951C68.5332 23.522 69.5532 24.7006 70.8685 25.5308C72.1934 26.3515 73.6994 26.7619 75.3865 26.7619C77.0926 26.7619 78.5986 26.3515 79.9043 25.5308C81.2199 24.7006 82.2302 23.5172 82.9356 21.9808ZM99.9333 26.4756H103.295V26.2895L98.6199 17.6005C99.8209 17.0947 100.755 16.3742 101.422 15.439C102.098 14.4942 102.437 13.3252 102.437 11.9319C102.437 9.88968 101.784 8.32937 100.478 7.25102C99.1727 6.17263 97.3187 5.63345 94.9167 5.63345H87.5965V26.4756H91.2134V18.4451H92.9104L91.4797 15.5392H91.2134V8.55365H95.031C96.2891 8.57273 97.233 8.88765 97.8619 9.4984C98.5005 10.1092 98.8196 10.9728 98.8196 12.0894C98.8196 13.1582 98.4764 14.0028 97.7903 14.6231C97.104 15.2338 96.1508 15.5392 94.9308 15.5392H94.5489L99.9333 26.4756ZM109.486 18.7314V26.4756H105.868V15.9517H112.066L112.092 15.9515L112.329 15.9517C113.202 15.9517 113.923 15.8933 114.498 15.7962C115.463 15.7073 116.223 15.4165 116.777 14.9237C117.454 14.3129 117.792 13.4349 117.792 12.2898C117.792 11.1637 117.449 10.2666 116.763 9.59861C116.077 8.92105 115.133 8.57273 113.932 8.55365H109.486V13.1955H105.868V5.63345H113.832C116.158 5.63345 118.002 6.23945 119.365 7.45141C120.738 8.6634 121.424 10.2666 121.424 12.2611C121.424 14.3034 120.752 15.8923 119.408 17.0279C118.074 18.1635 116.201 18.7314 113.789 18.7314H109.486ZM145.415 19.7103H149.032V23.584H159.026V26.4756H145.415V19.7103ZM145.415 16.954V11.191H149.032V14.3081H157.582V16.954H145.415ZM145.415 8.43471V5.63345H158.926V8.43471H145.415ZM167.225 18.4451H165.589V26.4756H161.971V5.63345H169.291C171.694 5.63345 173.547 6.17263 174.853 7.25102C176.159 8.32937 176.812 9.88968 176.812 11.9319C176.812 13.3252 176.474 14.4942 175.797 15.439C175.129 16.3742 174.195 17.0947 172.994 17.6005L177.67 26.2895V26.4756H174.248L168.864 15.5392H169.306C170.526 15.5392 171.479 15.2338 172.165 14.6231C172.852 14.0028 173.195 13.1582 173.195 12.0894C173.195 10.9728 172.875 10.1092 172.237 9.4984C171.608 8.88765 170.664 8.57273 169.406 8.55365H165.589V15.5392H165.794L167.225 18.4451Z" fill="black"/>
<path fill-rule="evenodd" clip-rule="evenodd" d="M17.344 3H12.544L4.20324 9.13241L8.13758 20.7683H11.2064L7.82284 10.1545L17.344 3ZM28.911 14.0069L27.3372 9.13241L18.9964 3L8.84577 10.469L9.86871 13.5352C13.464 11.0482 18.9964 6.77381 18.9964 6.77381L28.911 14.0069ZM17.6985 8.97486L17.6984 8.97489L17.6983 8.97498C17.2872 9.30187 16.8761 9.62874 16.3997 9.99726L25.7635 16.6014L22.1439 28.0014L26.1569 25.0138L29.1471 15.2648L18.9964 7.9531C18.5203 8.32141 18.1094 8.64812 17.6985 8.97482L17.6985 8.97486ZM21.9078 15.029L24.6618 16.9159L20.8849 28.7876H11.2064L6.64254 25.8787H18.4456L21.9078 15.029ZM17.8161 24.8566L18.6816 21.7904H7.58677L3.49505 10.469L2 15.2648L5.22615 24.8566H17.8161Z" fill="black"/>
</svg>
