<svg width="22" height="24" viewBox="0 0 22 24" fill="none" xmlns="http://www.w3.org/2000/svg">
<path fill-rule="evenodd" clip-rule="evenodd" d="M14.8222 6.61828L4.07134 0.383503C3.66535 0.140337 3.19152 0 2.68448 0C1.6383 0 0.718274 0.633838 0.27706 1.5199L0.357858 1.60068L10.0994 11.3401L14.8222 6.61828ZM0.00277716 2.56514C0.000932572 2.60464 0 2.64431 0 2.68413V21.3159C0 21.3557 0.000931355 21.3954 0.00277354 21.4348L9.43954 11.9999L0.00277716 2.56514ZM0.277083 22.48C0.718366 23.3661 1.63853 24 2.68447 24C3.1806 24 3.64641 23.8659 4.04587 23.6304L4.07759 23.6118L14.8406 17.3998L10.0994 12.6596L0.357862 22.3993L0.277083 22.48ZM15.6774 16.9169L20.0602 14.3873C20.9022 13.9328 21.4737 13.0452 21.4737 12.0217C21.4737 11.0055 20.9098 10.1224 20.0763 9.66635L20.0668 9.65982L15.6574 7.10267L10.7593 11.9999L15.6774 16.9169Z" fill="white"/>
</svg>
