<svg width="188" height="188" viewBox="0 0 188 188" fill="none" xmlns="http://www.w3.org/2000/svg">
<g clip-path="url(#clip0_671_406)">
<path d="M188 0H0V188H188V0Z" fill="white"/>
<path d="M53.3513 10.1622C54.7545 10.1622 55.8919 11.2997 55.8919 12.7028C55.8919 14.1059 54.7545 15.2433 53.3513 15.2433C51.9482 15.2433 50.8108 14.1059 50.8108 12.7028C50.8108 11.2997 51.9482 10.1622 53.3513 10.1622Z" fill="black"/>
<path d="M68.5945 10.1622C69.9977 10.1622 71.135 11.2997 71.135 12.7028C71.135 14.1059 69.9977 15.2433 68.5945 15.2433C67.1914 15.2433 66.054 14.1059 66.054 12.7028C66.054 11.2997 67.1914 10.1622 68.5945 10.1622Z" fill="black"/>
<path d="M78.7568 10.1622C80.16 10.1622 81.2974 11.2997 81.2974 12.7028C81.2974 14.1059 80.16 15.2433 78.7568 15.2433C77.3538 15.2433 76.2163 14.1059 76.2163 12.7028C76.2163 11.2997 77.3538 10.1622 78.7568 10.1622Z" fill="black"/>
<path d="M83.8379 10.1622C85.2411 10.1622 86.3784 11.2997 86.3784 12.7028C86.3784 14.1059 85.2411 15.2433 83.8379 15.2433C82.4348 15.2433 81.2974 14.1059 81.2974 12.7028C81.2974 11.2997 82.4348 10.1622 83.8379 10.1622Z" fill="black"/>
<path d="M104.162 10.1622C105.565 10.1622 106.703 11.2997 106.703 12.7028C106.703 14.1059 105.565 15.2433 104.162 15.2433C102.759 15.2433 101.622 14.1059 101.622 12.7028C101.622 11.2997 102.759 10.1622 104.162 10.1622Z" fill="black"/>
<path d="M119.405 10.1622C120.808 10.1622 121.946 11.2997 121.946 12.7028C121.946 14.1059 120.808 15.2433 119.405 15.2433C118.002 15.2433 116.865 14.1059 116.865 12.7028C116.865 11.2997 118.002 10.1622 119.405 10.1622Z" fill="black"/>
<path d="M124.487 10.1622C125.89 10.1622 127.027 11.2997 127.027 12.7028C127.027 14.1059 125.89 15.2433 124.487 15.2433C123.083 15.2433 121.946 14.1059 121.946 12.7028C121.946 11.2997 123.083 10.1622 124.487 10.1622Z" fill="black"/>
<path d="M134.649 10.1622C136.052 10.1622 137.189 11.2997 137.189 12.7028C137.189 14.1059 136.052 15.2433 134.649 15.2433C133.246 15.2433 132.108 14.1059 132.108 12.7028C132.108 11.2997 133.246 10.1622 134.649 10.1622Z" fill="black"/>
<path d="M73.6758 15.2433C75.079 15.2433 76.2163 16.3808 76.2163 17.7839C76.2163 19.187 75.079 20.3244 73.6758 20.3244C72.2727 20.3244 71.1353 19.187 71.1353 17.7839C71.1353 16.3808 72.2727 15.2433 73.6758 15.2433Z" fill="black"/>
<path d="M78.7568 15.2433C80.16 15.2433 81.2974 16.3808 81.2974 17.7839C81.2974 19.187 80.16 20.3244 78.7568 20.3244C77.3538 20.3244 76.2163 19.187 76.2163 17.7839C76.2163 16.3808 77.3538 15.2433 78.7568 15.2433Z" fill="black"/>
<path d="M83.8379 15.2433C85.2411 15.2433 86.3784 16.3808 86.3784 17.7839C86.3784 19.187 85.2411 20.3244 83.8379 20.3244C82.4348 20.3244 81.2974 19.187 81.2974 17.7839C81.2974 16.3808 82.4348 15.2433 83.8379 15.2433Z" fill="black"/>
<path d="M88.919 15.2433C90.3221 15.2433 91.4595 16.3808 91.4595 17.7839C91.4595 19.187 90.3221 20.3244 88.919 20.3244C87.5159 20.3244 86.3784 19.187 86.3784 17.7839C86.3784 16.3808 87.5159 15.2433 88.919 15.2433Z" fill="black"/>
<path d="M94 15.2433C95.4032 15.2433 96.5406 16.3808 96.5406 17.7839C96.5406 19.187 95.4032 20.3244 94 20.3244C92.5969 20.3244 91.4595 19.187 91.4595 17.7839C91.4595 16.3808 92.5969 15.2433 94 15.2433Z" fill="black"/>
<path d="M99.0811 15.2433C100.484 15.2433 101.622 16.3808 101.622 17.7839C101.622 19.187 100.484 20.3244 99.0811 20.3244C97.678 20.3244 96.5405 19.187 96.5405 17.7839C96.5405 16.3808 97.678 15.2433 99.0811 15.2433Z" fill="black"/>
<path d="M104.162 15.2433C105.565 15.2433 106.703 16.3808 106.703 17.7839C106.703 19.187 105.565 20.3244 104.162 20.3244C102.759 20.3244 101.622 19.187 101.622 17.7839C101.622 16.3808 102.759 15.2433 104.162 15.2433Z" fill="black"/>
<path d="M109.243 15.2433C110.646 15.2433 111.784 16.3808 111.784 17.7839C111.784 19.187 110.646 20.3244 109.243 20.3244C107.84 20.3244 106.703 19.187 106.703 17.7839C106.703 16.3808 107.84 15.2433 109.243 15.2433Z" fill="black"/>
<path d="M119.405 15.2433C120.808 15.2433 121.946 16.3808 121.946 17.7839C121.946 19.187 120.808 20.3244 119.405 20.3244C118.002 20.3244 116.865 19.187 116.865 17.7839C116.865 16.3808 118.002 15.2433 119.405 15.2433Z" fill="black"/>
<path d="M134.649 15.2433C136.052 15.2433 137.189 16.3808 137.189 17.7839C137.189 19.187 136.052 20.3244 134.649 20.3244C133.246 20.3244 132.108 19.187 132.108 17.7839C132.108 16.3808 133.246 15.2433 134.649 15.2433Z" fill="black"/>
<path d="M53.3513 20.3244C54.7545 20.3244 55.8919 21.4618 55.8919 22.8649C55.8919 24.2681 54.7545 25.4055 53.3513 25.4055C51.9482 25.4055 50.8108 24.2681 50.8108 22.8649C50.8108 21.4618 51.9482 20.3244 53.3513 20.3244Z" fill="black"/>
<path d="M73.6758 20.3244C75.079 20.3244 76.2163 21.4618 76.2163 22.8649C76.2163 24.2681 75.079 25.4055 73.6758 25.4055C72.2727 25.4055 71.1353 24.2681 71.1353 22.8649C71.1353 21.4618 72.2727 20.3244 73.6758 20.3244Z" fill="black"/>
<path d="M94 20.3244C95.4032 20.3244 96.5406 21.4618 96.5406 22.8649C96.5406 24.2681 95.4032 25.4055 94 25.4055C92.5969 25.4055 91.4595 24.2681 91.4595 22.8649C91.4595 21.4618 92.5969 20.3244 94 20.3244Z" fill="black"/>
<path d="M119.405 20.3244C120.808 20.3244 121.946 21.4618 121.946 22.8649C121.946 24.2681 120.808 25.4055 119.405 25.4055C118.002 25.4055 116.865 24.2681 116.865 22.8649C116.865 21.4618 118.002 20.3244 119.405 20.3244Z" fill="black"/>
<path d="M129.568 20.3244C130.971 20.3244 132.108 21.4618 132.108 22.8649C132.108 24.2681 130.971 25.4055 129.568 25.4055C128.165 25.4055 127.027 24.2681 127.027 22.8649C127.027 21.4618 128.165 20.3244 129.568 20.3244Z" fill="black"/>
<path d="M134.649 20.3244C136.052 20.3244 137.189 21.4618 137.189 22.8649C137.189 24.2681 136.052 25.4055 134.649 25.4055C133.246 25.4055 132.108 24.2681 132.108 22.8649C132.108 21.4618 133.246 20.3244 134.649 20.3244Z" fill="black"/>
<path d="M73.6758 25.4055C75.079 25.4055 76.2163 26.5429 76.2163 27.946C76.2163 29.3492 75.079 30.4865 73.6758 30.4865C72.2727 30.4865 71.1353 29.3492 71.1353 27.946C71.1353 26.5429 72.2727 25.4055 73.6758 25.4055Z" fill="black"/>
<path d="M83.8379 25.4055C85.2411 25.4055 86.3784 26.5429 86.3784 27.946C86.3784 29.3492 85.2411 30.4865 83.8379 30.4865C82.4348 30.4865 81.2974 29.3492 81.2974 27.946C81.2974 26.5429 82.4348 25.4055 83.8379 25.4055Z" fill="black"/>
<path d="M109.243 25.4055C110.646 25.4055 111.784 26.5429 111.784 27.946C111.784 29.3492 110.646 30.4865 109.243 30.4865C107.84 30.4865 106.703 29.3492 106.703 27.946C106.703 26.5429 107.84 25.4055 109.243 25.4055Z" fill="black"/>
<path d="M114.324 25.4055C115.727 25.4055 116.865 26.5429 116.865 27.946C116.865 29.3492 115.727 30.4865 114.324 30.4865C112.921 30.4865 111.784 29.3492 111.784 27.946C111.784 26.5429 112.921 25.4055 114.324 25.4055Z" fill="black"/>
<path d="M119.405 25.4055C120.808 25.4055 121.946 26.5429 121.946 27.946C121.946 29.3492 120.808 30.4865 119.405 30.4865C118.002 30.4865 116.865 29.3492 116.865 27.946C116.865 26.5429 118.002 25.4055 119.405 25.4055Z" fill="black"/>
<path d="M129.568 25.4055C130.971 25.4055 132.108 26.5429 132.108 27.946C132.108 29.3492 130.971 30.4865 129.568 30.4865C128.165 30.4865 127.027 29.3492 127.027 27.946C127.027 26.5429 128.165 25.4055 129.568 25.4055Z" fill="black"/>
<path d="M134.649 25.4055C136.052 25.4055 137.189 26.5429 137.189 27.946C137.189 29.3492 136.052 30.4865 134.649 30.4865C133.246 30.4865 132.108 29.3492 132.108 27.946C132.108 26.5429 133.246 25.4055 134.649 25.4055Z" fill="black"/>
<path d="M53.3513 30.4865C54.7545 30.4865 55.8919 31.624 55.8919 33.0271C55.8919 34.4302 54.7545 35.5676 53.3513 35.5676C51.9482 35.5676 50.8108 34.4302 50.8108 33.0271C50.8108 31.624 51.9482 30.4865 53.3513 30.4865Z" fill="black"/>
<path d="M68.5945 30.4865C69.9977 30.4865 71.135 31.624 71.135 33.0271C71.135 34.4302 69.9977 35.5676 68.5945 35.5676C67.1914 35.5676 66.054 34.4302 66.054 33.0271C66.054 31.624 67.1914 30.4865 68.5945 30.4865Z" fill="black"/>
<path d="M73.6758 30.4865C75.079 30.4865 76.2163 31.624 76.2163 33.0271C76.2163 34.4302 75.079 35.5676 73.6758 35.5676C72.2727 35.5676 71.1353 34.4302 71.1353 33.0271C71.1353 31.624 72.2727 30.4865 73.6758 30.4865Z" fill="black"/>
<path d="M78.7568 30.4865C80.16 30.4865 81.2974 31.624 81.2974 33.0271C81.2974 34.4302 80.16 35.5676 78.7568 35.5676C77.3538 35.5676 76.2163 34.4302 76.2163 33.0271C76.2163 31.624 77.3538 30.4865 78.7568 30.4865Z" fill="black"/>
<path d="M88.919 30.4865C90.3221 30.4865 91.4595 31.624 91.4595 33.0271C91.4595 34.4302 90.3221 35.5676 88.919 35.5676C87.5159 35.5676 86.3784 34.4302 86.3784 33.0271C86.3784 31.624 87.5159 30.4865 88.919 30.4865Z" fill="black"/>
<path d="M94 30.4865C95.4032 30.4865 96.5406 31.624 96.5406 33.0271C96.5406 34.4302 95.4032 35.5676 94 35.5676C92.5969 35.5676 91.4595 34.4302 91.4595 33.0271C91.4595 31.624 92.5969 30.4865 94 30.4865Z" fill="black"/>
<path d="M114.324 30.4865C115.727 30.4865 116.865 31.624 116.865 33.0271C116.865 34.4302 115.727 35.5676 114.324 35.5676C112.921 35.5676 111.784 34.4302 111.784 33.0271C111.784 31.624 112.921 30.4865 114.324 30.4865Z" fill="black"/>
<path d="M124.487 30.4865C125.89 30.4865 127.027 31.624 127.027 33.0271C127.027 34.4302 125.89 35.5676 124.487 35.5676C123.083 35.5676 121.946 34.4302 121.946 33.0271C121.946 31.624 123.083 30.4865 124.487 30.4865Z" fill="black"/>
<path d="M134.649 30.4865C136.052 30.4865 137.189 31.624 137.189 33.0271C137.189 34.4302 136.052 35.5676 134.649 35.5676C133.246 35.5676 132.108 34.4302 132.108 33.0271C132.108 31.624 133.246 30.4865 134.649 30.4865Z" fill="black"/>
<path d="M68.5945 35.5676C69.9977 35.5676 71.135 36.7051 71.135 38.1082C71.135 39.5113 69.9977 40.6487 68.5945 40.6487C67.1914 40.6487 66.054 39.5113 66.054 38.1082C66.054 36.7051 67.1914 35.5676 68.5945 35.5676Z" fill="black"/>
<path d="M104.162 35.5676C105.565 35.5676 106.703 36.7051 106.703 38.1082C106.703 39.5113 105.565 40.6487 104.162 40.6487C102.759 40.6487 101.622 39.5113 101.622 38.1082C101.622 36.7051 102.759 35.5676 104.162 35.5676Z" fill="black"/>
<path d="M109.243 35.5676C110.646 35.5676 111.784 36.7051 111.784 38.1082C111.784 39.5113 110.646 40.6487 109.243 40.6487C107.84 40.6487 106.703 39.5113 106.703 38.1082C106.703 36.7051 107.84 35.5676 109.243 35.5676Z" fill="black"/>
<path d="M119.405 35.5676C120.808 35.5676 121.946 36.7051 121.946 38.1082C121.946 39.5113 120.808 40.6487 119.405 40.6487C118.002 40.6487 116.865 39.5113 116.865 38.1082C116.865 36.7051 118.002 35.5676 119.405 35.5676Z" fill="black"/>
<path d="M124.487 35.5676C125.89 35.5676 127.027 36.7051 127.027 38.1082C127.027 39.5113 125.89 40.6487 124.487 40.6487C123.083 40.6487 121.946 39.5113 121.946 38.1082C121.946 36.7051 123.083 35.5676 124.487 35.5676Z" fill="black"/>
<path d="M53.3513 40.6487C54.7545 40.6487 55.8919 41.7862 55.8919 43.1893C55.8919 44.5924 54.7545 45.7298 53.3513 45.7298C51.9482 45.7298 50.8108 44.5924 50.8108 43.1893C50.8108 41.7862 51.9482 40.6487 53.3513 40.6487Z" fill="black"/>
<path d="M63.5134 40.6487C64.9166 40.6487 66.054 41.7862 66.054 43.1893C66.054 44.5924 64.9166 45.7298 63.5134 45.7298C62.1104 45.7298 60.9729 44.5924 60.9729 43.1893C60.9729 41.7862 62.1104 40.6487 63.5134 40.6487Z" fill="black"/>
<path d="M73.6758 40.6487C75.079 40.6487 76.2163 41.7862 76.2163 43.1893C76.2163 44.5924 75.079 45.7298 73.6758 45.7298C72.2727 45.7298 71.1353 44.5924 71.1353 43.1893C71.1353 41.7862 72.2727 40.6487 73.6758 40.6487Z" fill="black"/>
<path d="M83.8379 40.6487C85.2411 40.6487 86.3784 41.7862 86.3784 43.1893C86.3784 44.5924 85.2411 45.7298 83.8379 45.7298C82.4348 45.7298 81.2974 44.5924 81.2974 43.1893C81.2974 41.7862 82.4348 40.6487 83.8379 40.6487Z" fill="black"/>
<path d="M94 40.6487C95.4032 40.6487 96.5406 41.7862 96.5406 43.1893C96.5406 44.5924 95.4032 45.7298 94 45.7298C92.5969 45.7298 91.4595 44.5924 91.4595 43.1893C91.4595 41.7862 92.5969 40.6487 94 40.6487Z" fill="black"/>
<path d="M104.162 40.6487C105.565 40.6487 106.703 41.7862 106.703 43.1893C106.703 44.5924 105.565 45.7298 104.162 45.7298C102.759 45.7298 101.622 44.5924 101.622 43.1893C101.622 41.7862 102.759 40.6487 104.162 40.6487Z" fill="black"/>
<path d="M114.324 40.6487C115.727 40.6487 116.865 41.7862 116.865 43.1893C116.865 44.5924 115.727 45.7298 114.324 45.7298C112.921 45.7298 111.784 44.5924 111.784 43.1893C111.784 41.7862 112.921 40.6487 114.324 40.6487Z" fill="black"/>
<path d="M124.487 40.6487C125.89 40.6487 127.027 41.7862 127.027 43.1893C127.027 44.5924 125.89 45.7298 124.487 45.7298C123.083 45.7298 121.946 44.5924 121.946 43.1893C121.946 41.7862 123.083 40.6487 124.487 40.6487Z" fill="black"/>
<path d="M134.649 40.6487C136.052 40.6487 137.189 41.7862 137.189 43.1893C137.189 44.5924 136.052 45.7298 134.649 45.7298C133.246 45.7298 132.108 44.5924 132.108 43.1893C132.108 41.7862 133.246 40.6487 134.649 40.6487Z" fill="black"/>
<path d="M53.3513 45.7298C54.7545 45.7298 55.8919 46.8672 55.8919 48.2703C55.8919 49.6735 54.7545 50.8109 53.3513 50.8109C51.9482 50.8109 50.8108 49.6735 50.8108 48.2703C50.8108 46.8672 51.9482 45.7298 53.3513 45.7298Z" fill="black"/>
<path d="M63.5134 45.7298C64.9166 45.7298 66.054 46.8672 66.054 48.2703C66.054 49.6735 64.9166 50.8109 63.5134 50.8109C62.1104 50.8109 60.9729 49.6735 60.9729 48.2703C60.9729 46.8672 62.1104 45.7298 63.5134 45.7298Z" fill="black"/>
<path d="M78.7568 45.7298C80.16 45.7298 81.2974 46.8672 81.2974 48.2703C81.2974 49.6735 80.16 50.8109 78.7568 50.8109C77.3538 50.8109 76.2163 49.6735 76.2163 48.2703C76.2163 46.8672 77.3538 45.7298 78.7568 45.7298Z" fill="black"/>
<path d="M83.8379 45.7298C85.2411 45.7298 86.3784 46.8672 86.3784 48.2703C86.3784 49.6735 85.2411 50.8109 83.8379 50.8109C82.4348 50.8109 81.2974 49.6735 81.2974 48.2703C81.2974 46.8672 82.4348 45.7298 83.8379 45.7298Z" fill="black"/>
<path d="M94 45.7298C95.4032 45.7298 96.5406 46.8672 96.5406 48.2703C96.5406 49.6735 95.4032 50.8109 94 50.8109C92.5969 50.8109 91.4595 49.6735 91.4595 48.2703C91.4595 46.8672 92.5969 45.7298 94 45.7298Z" fill="black"/>
<path d="M99.0811 45.7298C100.484 45.7298 101.622 46.8672 101.622 48.2703C101.622 49.6735 100.484 50.8109 99.0811 50.8109C97.678 50.8109 96.5405 49.6735 96.5405 48.2703C96.5405 46.8672 97.678 45.7298 99.0811 45.7298Z" fill="black"/>
<path d="M104.162 45.7298C105.565 45.7298 106.703 46.8672 106.703 48.2703C106.703 49.6735 105.565 50.8109 104.162 50.8109C102.759 50.8109 101.622 49.6735 101.622 48.2703C101.622 46.8672 102.759 45.7298 104.162 45.7298Z" fill="black"/>
<path d="M109.243 45.7298C110.646 45.7298 111.784 46.8672 111.784 48.2703C111.784 49.6735 110.646 50.8109 109.243 50.8109C107.84 50.8109 106.703 49.6735 106.703 48.2703C106.703 46.8672 107.84 45.7298 109.243 45.7298Z" fill="black"/>
<path d="M124.487 45.7298C125.89 45.7298 127.027 46.8672 127.027 48.2703C127.027 49.6735 125.89 50.8109 124.487 50.8109C123.083 50.8109 121.946 49.6735 121.946 48.2703C121.946 46.8672 123.083 45.7298 124.487 45.7298Z" fill="black"/>
<path d="M129.568 45.7298C130.971 45.7298 132.108 46.8672 132.108 48.2703C132.108 49.6735 130.971 50.8109 129.568 50.8109C128.165 50.8109 127.027 49.6735 127.027 48.2703C127.027 46.8672 128.165 45.7298 129.568 45.7298Z" fill="black"/>
<path d="M134.649 45.7298C136.052 45.7298 137.189 46.8672 137.189 48.2703C137.189 49.6735 136.052 50.8109 134.649 50.8109C133.246 50.8109 132.108 49.6735 132.108 48.2703C132.108 46.8672 133.246 45.7298 134.649 45.7298Z" fill="black"/>
<path d="M38.1082 50.8109C39.5113 50.8109 40.6487 51.9483 40.6487 53.3514C40.6487 54.7546 39.5113 55.892 38.1082 55.892C36.7051 55.892 35.5676 54.7546 35.5676 53.3514C35.5676 51.9483 36.7051 50.8109 38.1082 50.8109Z" fill="black"/>
<path d="M43.1892 50.8109C44.5924 50.8109 45.7298 51.9483 45.7298 53.3514C45.7298 54.7546 44.5924 55.892 43.1892 55.892C41.7861 55.892 40.6487 54.7546 40.6487 53.3514C40.6487 51.9483 41.7861 50.8109 43.1892 50.8109Z" fill="black"/>
<path d="M58.4324 50.8109C59.8355 50.8109 60.9729 51.9483 60.9729 53.3514C60.9729 54.7546 59.8355 55.892 58.4324 55.892C57.0293 55.892 55.8918 54.7546 55.8918 53.3514C55.8918 51.9483 57.0293 50.8109 58.4324 50.8109Z" fill="black"/>
<path d="M63.5134 50.8109C64.9166 50.8109 66.054 51.9483 66.054 53.3514C66.054 54.7546 64.9166 55.892 63.5134 55.892C62.1104 55.892 60.9729 54.7546 60.9729 53.3514C60.9729 51.9483 62.1104 50.8109 63.5134 50.8109Z" fill="black"/>
<path d="M73.6758 50.8109C75.079 50.8109 76.2163 51.9483 76.2163 53.3514C76.2163 54.7546 75.079 55.892 73.6758 55.892C72.2727 55.892 71.1353 54.7546 71.1353 53.3514C71.1353 51.9483 72.2727 50.8109 73.6758 50.8109Z" fill="black"/>
<path d="M78.7568 50.8109C80.16 50.8109 81.2974 51.9483 81.2974 53.3514C81.2974 54.7546 80.16 55.892 78.7568 55.892C77.3538 55.892 76.2163 54.7546 76.2163 53.3514C76.2163 51.9483 77.3538 50.8109 78.7568 50.8109Z" fill="black"/>
<path d="M83.8379 50.8109C85.2411 50.8109 86.3784 51.9483 86.3784 53.3514C86.3784 54.7546 85.2411 55.892 83.8379 55.892C82.4348 55.892 81.2974 54.7546 81.2974 53.3514C81.2974 51.9483 82.4348 50.8109 83.8379 50.8109Z" fill="black"/>
<path d="M94 50.8109C95.4032 50.8109 96.5406 51.9483 96.5406 53.3514C96.5406 54.7546 95.4032 55.892 94 55.892C92.5969 55.892 91.4595 54.7546 91.4595 53.3514C91.4595 51.9483 92.5969 50.8109 94 50.8109Z" fill="black"/>
<path d="M99.0811 50.8109C100.484 50.8109 101.622 51.9483 101.622 53.3514C101.622 54.7546 100.484 55.892 99.0811 55.892C97.678 55.892 96.5405 54.7546 96.5405 53.3514C96.5405 51.9483 97.678 50.8109 99.0811 50.8109Z" fill="black"/>
<path d="M109.243 50.8109C110.646 50.8109 111.784 51.9483 111.784 53.3514C111.784 54.7546 110.646 55.892 109.243 55.892C107.84 55.892 106.703 54.7546 106.703 53.3514C106.703 51.9483 107.84 50.8109 109.243 50.8109Z" fill="black"/>
<path d="M114.324 50.8109C115.727 50.8109 116.865 51.9483 116.865 53.3514C116.865 54.7546 115.727 55.892 114.324 55.892C112.921 55.892 111.784 54.7546 111.784 53.3514C111.784 51.9483 112.921 50.8109 114.324 50.8109Z" fill="black"/>
<path d="M124.487 50.8109C125.89 50.8109 127.027 51.9483 127.027 53.3514C127.027 54.7546 125.89 55.892 124.487 55.892C123.083 55.892 121.946 54.7546 121.946 53.3514C121.946 51.9483 123.083 50.8109 124.487 50.8109Z" fill="black"/>
<path d="M129.568 50.8109C130.971 50.8109 132.108 51.9483 132.108 53.3514C132.108 54.7546 130.971 55.892 129.568 55.892C128.165 55.892 127.027 54.7546 127.027 53.3514C127.027 51.9483 128.165 50.8109 129.568 50.8109Z" fill="black"/>
<path d="M134.649 50.8109C136.052 50.8109 137.189 51.9483 137.189 53.3514C137.189 54.7546 136.052 55.892 134.649 55.892C133.246 55.892 132.108 54.7546 132.108 53.3514C132.108 51.9483 133.246 50.8109 134.649 50.8109Z" fill="black"/>
<path d="M144.811 50.8109C146.214 50.8109 147.351 51.9483 147.351 53.3514C147.351 54.7546 146.214 55.892 144.811 55.892C143.408 55.892 142.27 54.7546 142.27 53.3514C142.27 51.9483 143.408 50.8109 144.811 50.8109Z" fill="black"/>
<path d="M154.973 50.8109C156.376 50.8109 157.513 51.9483 157.513 53.3514C157.513 54.7546 156.376 55.892 154.973 55.892C153.57 55.892 152.432 54.7546 152.432 53.3514C152.432 51.9483 153.57 50.8109 154.973 50.8109Z" fill="black"/>
<path d="M165.135 50.8109C166.538 50.8109 167.676 51.9483 167.676 53.3514C167.676 54.7546 166.538 55.892 165.135 55.892C163.732 55.892 162.594 54.7546 162.594 53.3514C162.594 51.9483 163.732 50.8109 165.135 50.8109Z" fill="black"/>
<path d="M175.297 50.8109C176.701 50.8109 177.838 51.9483 177.838 53.3514C177.838 54.7546 176.701 55.892 175.297 55.892C173.894 55.892 172.757 54.7546 172.757 53.3514C172.757 51.9483 173.894 50.8109 175.297 50.8109Z" fill="black"/>
<path d="M22.8648 55.892C24.2679 55.892 25.4053 57.0294 25.4053 58.4325C25.4053 59.8357 24.2679 60.973 22.8648 60.973C21.4617 60.973 20.3242 59.8357 20.3242 58.4325C20.3242 57.0294 21.4617 55.892 22.8648 55.892Z" fill="black"/>
<path d="M27.9461 55.892C29.3492 55.892 30.4866 57.0294 30.4866 58.4325C30.4866 59.8357 29.3492 60.973 27.9461 60.973C26.543 60.973 25.4055 59.8357 25.4055 58.4325C25.4055 57.0294 26.543 55.892 27.9461 55.892Z" fill="black"/>
<path d="M48.2703 55.892C49.6734 55.892 50.8108 57.0294 50.8108 58.4325C50.8108 59.8357 49.6734 60.973 48.2703 60.973C46.8672 60.973 45.7297 59.8357 45.7297 58.4325C45.7297 57.0294 46.8672 55.892 48.2703 55.892Z" fill="black"/>
<path d="M63.5134 55.892C64.9166 55.892 66.054 57.0294 66.054 58.4325C66.054 59.8357 64.9166 60.973 63.5134 60.973C62.1104 60.973 60.9729 59.8357 60.9729 58.4325C60.9729 57.0294 62.1104 55.892 63.5134 55.892Z" fill="black"/>
<path d="M73.6758 55.892C75.079 55.892 76.2163 57.0294 76.2163 58.4325C76.2163 59.8357 75.079 60.973 73.6758 60.973C72.2727 60.973 71.1353 59.8357 71.1353 58.4325C71.1353 57.0294 72.2727 55.892 73.6758 55.892Z" fill="black"/>
<path d="M78.7568 55.892C80.16 55.892 81.2974 57.0294 81.2974 58.4325C81.2974 59.8357 80.16 60.973 78.7568 60.973C77.3538 60.973 76.2163 59.8357 76.2163 58.4325C76.2163 57.0294 77.3538 55.892 78.7568 55.892Z" fill="black"/>
<path d="M83.8379 55.892C85.2411 55.892 86.3784 57.0294 86.3784 58.4325C86.3784 59.8357 85.2411 60.973 83.8379 60.973C82.4348 60.973 81.2974 59.8357 81.2974 58.4325C81.2974 57.0294 82.4348 55.892 83.8379 55.892Z" fill="black"/>
<path d="M88.919 55.892C90.3221 55.892 91.4595 57.0294 91.4595 58.4325C91.4595 59.8357 90.3221 60.973 88.919 60.973C87.5159 60.973 86.3784 59.8357 86.3784 58.4325C86.3784 57.0294 87.5159 55.892 88.919 55.892Z" fill="black"/>
<path d="M119.405 55.892C120.808 55.892 121.946 57.0294 121.946 58.4325C121.946 59.8357 120.808 60.973 119.405 60.973C118.002 60.973 116.865 59.8357 116.865 58.4325C116.865 57.0294 118.002 55.892 119.405 55.892Z" fill="black"/>
<path d="M124.487 55.892C125.89 55.892 127.027 57.0294 127.027 58.4325C127.027 59.8357 125.89 60.973 124.487 60.973C123.083 60.973 121.946 59.8357 121.946 58.4325C121.946 57.0294 123.083 55.892 124.487 55.892Z" fill="black"/>
<path d="M129.568 55.892C130.971 55.892 132.108 57.0294 132.108 58.4325C132.108 59.8357 130.971 60.973 129.568 60.973C128.165 60.973 127.027 59.8357 127.027 58.4325C127.027 57.0294 128.165 55.892 129.568 55.892Z" fill="black"/>
<path d="M134.649 55.892C136.052 55.892 137.189 57.0294 137.189 58.4325C137.189 59.8357 136.052 60.973 134.649 60.973C133.246 60.973 132.108 59.8357 132.108 58.4325C132.108 57.0294 133.246 55.892 134.649 55.892Z" fill="black"/>
<path d="M139.73 55.892C141.133 55.892 142.27 57.0294 142.27 58.4325C142.27 59.8357 141.133 60.973 139.73 60.973C138.327 60.973 137.189 59.8357 137.189 58.4325C137.189 57.0294 138.327 55.892 139.73 55.892Z" fill="black"/>
<path d="M149.892 55.892C151.295 55.892 152.432 57.0294 152.432 58.4325C152.432 59.8357 151.295 60.973 149.892 60.973C148.489 60.973 147.351 59.8357 147.351 58.4325C147.351 57.0294 148.489 55.892 149.892 55.892Z" fill="black"/>
<path d="M154.973 55.892C156.376 55.892 157.513 57.0294 157.513 58.4325C157.513 59.8357 156.376 60.973 154.973 60.973C153.57 60.973 152.432 59.8357 152.432 58.4325C152.432 57.0294 153.57 55.892 154.973 55.892Z" fill="black"/>
<path d="M160.054 55.892C161.457 55.892 162.595 57.0294 162.595 58.4325C162.595 59.8357 161.457 60.973 160.054 60.973C158.651 60.973 157.513 59.8357 157.513 58.4325C157.513 57.0294 158.651 55.892 160.054 55.892Z" fill="black"/>
<path d="M165.135 55.892C166.538 55.892 167.676 57.0294 167.676 58.4325C167.676 59.8357 166.538 60.973 165.135 60.973C163.732 60.973 162.594 59.8357 162.594 58.4325C162.594 57.0294 163.732 55.892 165.135 55.892Z" fill="black"/>
<path d="M170.216 55.892C171.619 55.892 172.757 57.0294 172.757 58.4325C172.757 59.8357 171.619 60.973 170.216 60.973C168.813 60.973 167.676 59.8357 167.676 58.4325C167.676 57.0294 168.813 55.892 170.216 55.892Z" fill="black"/>
<path d="M17.7837 60.973C19.1869 60.973 20.3242 62.1105 20.3242 63.5136C20.3242 64.9167 19.1869 66.0541 17.7837 66.0541C16.3806 66.0541 15.2432 64.9167 15.2432 63.5136C15.2432 62.1105 16.3806 60.973 17.7837 60.973Z" fill="black"/>
<path d="M27.9461 60.973C29.3492 60.973 30.4866 62.1105 30.4866 63.5136C30.4866 64.9167 29.3492 66.0541 27.9461 66.0541C26.543 66.0541 25.4055 64.9167 25.4055 63.5136C25.4055 62.1105 26.543 60.973 27.9461 60.973Z" fill="black"/>
<path d="M43.1892 60.973C44.5924 60.973 45.7298 62.1105 45.7298 63.5136C45.7298 64.9167 44.5924 66.0541 43.1892 66.0541C41.7861 66.0541 40.6487 64.9167 40.6487 63.5136C40.6487 62.1105 41.7861 60.973 43.1892 60.973Z" fill="black"/>
<path d="M48.2703 60.973C49.6734 60.973 50.8108 62.1105 50.8108 63.5136C50.8108 64.9167 49.6734 66.0541 48.2703 66.0541C46.8672 66.0541 45.7297 64.9167 45.7297 63.5136C45.7297 62.1105 46.8672 60.973 48.2703 60.973Z" fill="black"/>
<path d="M53.3513 60.973C54.7545 60.973 55.8919 62.1105 55.8919 63.5136C55.8919 64.9167 54.7545 66.0541 53.3513 66.0541C51.9482 66.0541 50.8108 64.9167 50.8108 63.5136C50.8108 62.1105 51.9482 60.973 53.3513 60.973Z" fill="black"/>
<path d="M78.7568 60.973C80.16 60.973 81.2974 62.1105 81.2974 63.5136C81.2974 64.9167 80.16 66.0541 78.7568 66.0541C77.3538 66.0541 76.2163 64.9167 76.2163 63.5136C76.2163 62.1105 77.3538 60.973 78.7568 60.973Z" fill="black"/>
<path d="M83.8379 60.973C85.2411 60.973 86.3784 62.1105 86.3784 63.5136C86.3784 64.9167 85.2411 66.0541 83.8379 66.0541C82.4348 66.0541 81.2974 64.9167 81.2974 63.5136C81.2974 62.1105 82.4348 60.973 83.8379 60.973Z" fill="black"/>
<path d="M99.0811 60.973C100.484 60.973 101.622 62.1105 101.622 63.5136C101.622 64.9167 100.484 66.0541 99.0811 66.0541C97.678 66.0541 96.5405 64.9167 96.5405 63.5136C96.5405 62.1105 97.678 60.973 99.0811 60.973Z" fill="black"/>
<path d="M104.162 60.973C105.565 60.973 106.703 62.1105 106.703 63.5136C106.703 64.9167 105.565 66.0541 104.162 66.0541C102.759 66.0541 101.622 64.9167 101.622 63.5136C101.622 62.1105 102.759 60.973 104.162 60.973Z" fill="black"/>
<path d="M109.243 60.973C110.646 60.973 111.784 62.1105 111.784 63.5136C111.784 64.9167 110.646 66.0541 109.243 66.0541C107.84 66.0541 106.703 64.9167 106.703 63.5136C106.703 62.1105 107.84 60.973 109.243 60.973Z" fill="black"/>
<path d="M114.324 60.973C115.727 60.973 116.865 62.1105 116.865 63.5136C116.865 64.9167 115.727 66.0541 114.324 66.0541C112.921 66.0541 111.784 64.9167 111.784 63.5136C111.784 62.1105 112.921 60.973 114.324 60.973Z" fill="black"/>
<path d="M124.487 60.973C125.89 60.973 127.027 62.1105 127.027 63.5136C127.027 64.9167 125.89 66.0541 124.487 66.0541C123.083 66.0541 121.946 64.9167 121.946 63.5136C121.946 62.1105 123.083 60.973 124.487 60.973Z" fill="black"/>
<path d="M139.73 60.973C141.133 60.973 142.27 62.1105 142.27 63.5136C142.27 64.9167 141.133 66.0541 139.73 66.0541C138.327 66.0541 137.189 64.9167 137.189 63.5136C137.189 62.1105 138.327 60.973 139.73 60.973Z" fill="black"/>
<path d="M144.811 60.973C146.214 60.973 147.351 62.1105 147.351 63.5136C147.351 64.9167 146.214 66.0541 144.811 66.0541C143.408 66.0541 142.27 64.9167 142.27 63.5136C142.27 62.1105 143.408 60.973 144.811 60.973Z" fill="black"/>
<path d="M149.892 60.973C151.295 60.973 152.432 62.1105 152.432 63.5136C152.432 64.9167 151.295 66.0541 149.892 66.0541C148.489 66.0541 147.351 64.9167 147.351 63.5136C147.351 62.1105 148.489 60.973 149.892 60.973Z" fill="black"/>
<path d="M160.054 60.973C161.457 60.973 162.595 62.1105 162.595 63.5136C162.595 64.9167 161.457 66.0541 160.054 66.0541C158.651 66.0541 157.513 64.9167 157.513 63.5136C157.513 62.1105 158.651 60.973 160.054 60.973Z" fill="black"/>
<path d="M165.135 60.973C166.538 60.973 167.676 62.1105 167.676 63.5136C167.676 64.9167 166.538 66.0541 165.135 66.0541C163.732 66.0541 162.594 64.9167 162.594 63.5136C162.594 62.1105 163.732 60.973 165.135 60.973Z" fill="black"/>
<path d="M170.216 60.973C171.619 60.973 172.757 62.1105 172.757 63.5136C172.757 64.9167 171.619 66.0541 170.216 66.0541C168.813 66.0541 167.676 64.9167 167.676 63.5136C167.676 62.1105 168.813 60.973 170.216 60.973Z" fill="black"/>
<path d="M12.7026 66.0541C14.1058 66.0541 15.2432 67.1916 15.2432 68.5946C15.2432 69.9978 14.1058 71.1352 12.7026 71.1352C11.2996 71.1352 10.1621 69.9978 10.1621 68.5946C10.1621 67.1916 11.2996 66.0541 12.7026 66.0541Z" fill="black"/>
<path d="M17.7837 66.0541C19.1869 66.0541 20.3242 67.1916 20.3242 68.5946C20.3242 69.9978 19.1869 71.1352 17.7837 71.1352C16.3806 71.1352 15.2432 69.9978 15.2432 68.5946C15.2432 67.1916 16.3806 66.0541 17.7837 66.0541Z" fill="black"/>
<path d="M22.8648 66.0541C24.2679 66.0541 25.4053 67.1916 25.4053 68.5946C25.4053 69.9978 24.2679 71.1352 22.8648 71.1352C21.4617 71.1352 20.3242 69.9978 20.3242 68.5946C20.3242 67.1916 21.4617 66.0541 22.8648 66.0541Z" fill="black"/>
<path d="M33.0271 66.0541C34.4303 66.0541 35.5677 67.1916 35.5677 68.5946C35.5677 69.9978 34.4303 71.1352 33.0271 71.1352C31.624 71.1352 30.4866 69.9978 30.4866 68.5946C30.4866 67.1916 31.624 66.0541 33.0271 66.0541Z" fill="black"/>
<path d="M38.1082 66.0541C39.5113 66.0541 40.6487 67.1916 40.6487 68.5946C40.6487 69.9978 39.5113 71.1352 38.1082 71.1352C36.7051 71.1352 35.5676 69.9978 35.5676 68.5946C35.5676 67.1916 36.7051 66.0541 38.1082 66.0541Z" fill="black"/>
<path d="M58.4324 66.0541C59.8355 66.0541 60.9729 67.1916 60.9729 68.5946C60.9729 69.9978 59.8355 71.1352 58.4324 71.1352C57.0293 71.1352 55.8918 69.9978 55.8918 68.5946C55.8918 67.1916 57.0293 66.0541 58.4324 66.0541Z" fill="black"/>
<path d="M144.811 66.0541C146.214 66.0541 147.351 67.1916 147.351 68.5946C147.351 69.9978 146.214 71.1352 144.811 71.1352C143.408 71.1352 142.27 69.9978 142.27 68.5946C142.27 67.1916 143.408 66.0541 144.811 66.0541Z" fill="black"/>
<path d="M149.892 66.0541C151.295 66.0541 152.432 67.1916 152.432 68.5946C152.432 69.9978 151.295 71.1352 149.892 71.1352C148.489 71.1352 147.351 69.9978 147.351 68.5946C147.351 67.1916 148.489 66.0541 149.892 66.0541Z" fill="black"/>
<path d="M160.054 66.0541C161.457 66.0541 162.595 67.1916 162.595 68.5946C162.595 69.9978 161.457 71.1352 160.054 71.1352C158.651 71.1352 157.513 69.9978 157.513 68.5946C157.513 67.1916 158.651 66.0541 160.054 66.0541Z" fill="black"/>
<path d="M165.135 66.0541C166.538 66.0541 167.676 67.1916 167.676 68.5946C167.676 69.9978 166.538 71.1352 165.135 71.1352C163.732 71.1352 162.594 69.9978 162.594 68.5946C162.594 67.1916 163.732 66.0541 165.135 66.0541Z" fill="black"/>
<path d="M170.216 66.0541C171.619 66.0541 172.757 67.1916 172.757 68.5946C172.757 69.9978 171.619 71.1352 170.216 71.1352C168.813 71.1352 167.676 69.9978 167.676 68.5946C167.676 67.1916 168.813 66.0541 170.216 66.0541Z" fill="black"/>
<path d="M175.297 66.0541C176.701 66.0541 177.838 67.1916 177.838 68.5946C177.838 69.9978 176.701 71.1352 175.297 71.1352C173.894 71.1352 172.757 69.9978 172.757 68.5946C172.757 67.1916 173.894 66.0541 175.297 66.0541Z" fill="black"/>
<path d="M17.7837 71.1352C19.1869 71.1352 20.3242 72.2726 20.3242 73.6757C20.3242 75.0789 19.1869 76.2163 17.7837 76.2163C16.3806 76.2163 15.2432 75.0789 15.2432 73.6757C15.2432 72.2726 16.3806 71.1352 17.7837 71.1352Z" fill="black"/>
<path d="M22.8648 71.1352C24.2679 71.1352 25.4053 72.2726 25.4053 73.6757C25.4053 75.0789 24.2679 76.2163 22.8648 76.2163C21.4617 76.2163 20.3242 75.0789 20.3242 73.6757C20.3242 72.2726 21.4617 71.1352 22.8648 71.1352Z" fill="black"/>
<path d="M27.9461 71.1352C29.3492 71.1352 30.4866 72.2726 30.4866 73.6757C30.4866 75.0789 29.3492 76.2163 27.9461 76.2163C26.543 76.2163 25.4055 75.0789 25.4055 73.6757C25.4055 72.2726 26.543 71.1352 27.9461 71.1352Z" fill="black"/>
<path d="M38.1082 71.1352C39.5113 71.1352 40.6487 72.2726 40.6487 73.6757C40.6487 75.0789 39.5113 76.2163 38.1082 76.2163C36.7051 76.2163 35.5676 75.0789 35.5676 73.6757C35.5676 72.2726 36.7051 71.1352 38.1082 71.1352Z" fill="black"/>
<path d="M43.1892 71.1352C44.5924 71.1352 45.7298 72.2726 45.7298 73.6757C45.7298 75.0789 44.5924 76.2163 43.1892 76.2163C41.7861 76.2163 40.6487 75.0789 40.6487 73.6757C40.6487 72.2726 41.7861 71.1352 43.1892 71.1352Z" fill="black"/>
<path d="M48.2703 71.1352C49.6734 71.1352 50.8108 72.2726 50.8108 73.6757C50.8108 75.0789 49.6734 76.2163 48.2703 76.2163C46.8672 76.2163 45.7297 75.0789 45.7297 73.6757C45.7297 72.2726 46.8672 71.1352 48.2703 71.1352Z" fill="black"/>
<path d="M53.3513 71.1352C54.7545 71.1352 55.8919 72.2726 55.8919 73.6757C55.8919 75.0789 54.7545 76.2163 53.3513 76.2163C51.9482 76.2163 50.8108 75.0789 50.8108 73.6757C50.8108 72.2726 51.9482 71.1352 53.3513 71.1352Z" fill="black"/>
<path d="M63.5134 71.1352C64.9166 71.1352 66.054 72.2726 66.054 73.6757C66.054 75.0789 64.9166 76.2163 63.5134 76.2163C62.1104 76.2163 60.9729 75.0789 60.9729 73.6757C60.9729 72.2726 62.1104 71.1352 63.5134 71.1352Z" fill="black"/>
<path d="M144.811 71.1352C146.214 71.1352 147.351 72.2726 147.351 73.6757C147.351 75.0789 146.214 76.2163 144.811 76.2163C143.408 76.2163 142.27 75.0789 142.27 73.6757C142.27 72.2726 143.408 71.1352 144.811 71.1352Z" fill="black"/>
<path d="M149.892 71.1352C151.295 71.1352 152.432 72.2726 152.432 73.6757C152.432 75.0789 151.295 76.2163 149.892 76.2163C148.489 76.2163 147.351 75.0789 147.351 73.6757C147.351 72.2726 148.489 71.1352 149.892 71.1352Z" fill="black"/>
<path d="M175.297 71.1352C176.701 71.1352 177.838 72.2726 177.838 73.6757C177.838 75.0789 176.701 76.2163 175.297 76.2163C173.894 76.2163 172.757 75.0789 172.757 73.6757C172.757 72.2726 173.894 71.1352 175.297 71.1352Z" fill="black"/>
<path d="M17.7837 76.2163C19.1869 76.2163 20.3242 77.3537 20.3242 78.7568C20.3242 80.16 19.1869 81.2974 17.7837 81.2974C16.3806 81.2974 15.2432 80.16 15.2432 78.7568C15.2432 77.3537 16.3806 76.2163 17.7837 76.2163Z" fill="black"/>
<path d="M38.1082 76.2163C39.5113 76.2163 40.6487 77.3537 40.6487 78.7568C40.6487 80.16 39.5113 81.2974 38.1082 81.2974C36.7051 81.2974 35.5676 80.16 35.5676 78.7568C35.5676 77.3537 36.7051 76.2163 38.1082 76.2163Z" fill="black"/>
<path d="M53.3513 76.2163C54.7545 76.2163 55.8919 77.3537 55.8919 78.7568C55.8919 80.16 54.7545 81.2974 53.3513 81.2974C51.9482 81.2974 50.8108 80.16 50.8108 78.7568C50.8108 77.3537 51.9482 76.2163 53.3513 76.2163Z" fill="black"/>
<path d="M58.4324 76.2163C59.8355 76.2163 60.9729 77.3537 60.9729 78.7568C60.9729 80.16 59.8355 81.2974 58.4324 81.2974C57.0293 81.2974 55.8918 80.16 55.8918 78.7568C55.8918 77.3537 57.0293 76.2163 58.4324 76.2163Z" fill="black"/>
<path d="M129.568 76.2163C130.971 76.2163 132.108 77.3537 132.108 78.7568C132.108 80.16 130.971 81.2974 129.568 81.2974C128.165 81.2974 127.027 80.16 127.027 78.7568C127.027 77.3537 128.165 76.2163 129.568 76.2163Z" fill="black"/>
<path d="M144.811 76.2163C146.214 76.2163 147.351 77.3537 147.351 78.7568C147.351 80.16 146.214 81.2974 144.811 81.2974C143.408 81.2974 142.27 80.16 142.27 78.7568C142.27 77.3537 143.408 76.2163 144.811 76.2163Z" fill="black"/>
<path d="M149.892 76.2163C151.295 76.2163 152.432 77.3537 152.432 78.7568C152.432 80.16 151.295 81.2974 149.892 81.2974C148.489 81.2974 147.351 80.16 147.351 78.7568C147.351 77.3537 148.489 76.2163 149.892 76.2163Z" fill="black"/>
<path d="M165.135 76.2163C166.538 76.2163 167.676 77.3537 167.676 78.7568C167.676 80.16 166.538 81.2974 165.135 81.2974C163.732 81.2974 162.594 80.16 162.594 78.7568C162.594 77.3537 163.732 76.2163 165.135 76.2163Z" fill="black"/>
<path d="M175.297 76.2163C176.701 76.2163 177.838 77.3537 177.838 78.7568C177.838 80.16 176.701 81.2974 175.297 81.2974C173.894 81.2974 172.757 80.16 172.757 78.7568C172.757 77.3537 173.894 76.2163 175.297 76.2163Z" fill="black"/>
<path d="M12.7026 81.2974C14.1058 81.2974 15.2432 82.4348 15.2432 83.8379C15.2432 85.2411 14.1058 86.3784 12.7026 86.3784C11.2996 86.3784 10.1621 85.2411 10.1621 83.8379C10.1621 82.4348 11.2996 81.2974 12.7026 81.2974Z" fill="black"/>
<path d="M17.7837 81.2974C19.1869 81.2974 20.3242 82.4348 20.3242 83.8379C20.3242 85.2411 19.1869 86.3784 17.7837 86.3784C16.3806 86.3784 15.2432 85.2411 15.2432 83.8379C15.2432 82.4348 16.3806 81.2974 17.7837 81.2974Z" fill="black"/>
<path d="M22.8648 81.2974C24.2679 81.2974 25.4053 82.4348 25.4053 83.8379C25.4053 85.2411 24.2679 86.3784 22.8648 86.3784C21.4617 86.3784 20.3242 85.2411 20.3242 83.8379C20.3242 82.4348 21.4617 81.2974 22.8648 81.2974Z" fill="black"/>
<path d="M43.1892 81.2974C44.5924 81.2974 45.7298 82.4348 45.7298 83.8379C45.7298 85.2411 44.5924 86.3784 43.1892 86.3784C41.7861 86.3784 40.6487 85.2411 40.6487 83.8379C40.6487 82.4348 41.7861 81.2974 43.1892 81.2974Z" fill="black"/>
<path d="M53.3513 81.2974C54.7545 81.2974 55.8919 82.4348 55.8919 83.8379C55.8919 85.2411 54.7545 86.3784 53.3513 86.3784C51.9482 86.3784 50.8108 85.2411 50.8108 83.8379C50.8108 82.4348 51.9482 81.2974 53.3513 81.2974Z" fill="black"/>
<path d="M124.487 81.2974C125.89 81.2974 127.027 82.4348 127.027 83.8379C127.027 85.2411 125.89 86.3784 124.487 86.3784C123.083 86.3784 121.946 85.2411 121.946 83.8379C121.946 82.4348 123.083 81.2974 124.487 81.2974Z" fill="black"/>
<path d="M149.892 81.2974C151.295 81.2974 152.432 82.4348 152.432 83.8379C152.432 85.2411 151.295 86.3784 149.892 86.3784C148.489 86.3784 147.351 85.2411 147.351 83.8379C147.351 82.4348 148.489 81.2974 149.892 81.2974Z" fill="black"/>
<path d="M165.135 81.2974C166.538 81.2974 167.676 82.4348 167.676 83.8379C167.676 85.2411 166.538 86.3784 165.135 86.3784C163.732 86.3784 162.594 85.2411 162.594 83.8379C162.594 82.4348 163.732 81.2974 165.135 81.2974Z" fill="black"/>
<path d="M170.216 81.2974C171.619 81.2974 172.757 82.4348 172.757 83.8379C172.757 85.2411 171.619 86.3784 170.216 86.3784C168.813 86.3784 167.676 85.2411 167.676 83.8379C167.676 82.4348 168.813 81.2974 170.216 81.2974Z" fill="black"/>
<path d="M22.8648 86.3784C24.2679 86.3784 25.4053 87.5159 25.4053 88.919C25.4053 90.3221 24.2679 91.4595 22.8648 91.4595C21.4617 91.4595 20.3242 90.3221 20.3242 88.919C20.3242 87.5159 21.4617 86.3784 22.8648 86.3784Z" fill="black"/>
<path d="M33.0271 86.3784C34.4303 86.3784 35.5677 87.5159 35.5677 88.919C35.5677 90.3221 34.4303 91.4595 33.0271 91.4595C31.624 91.4595 30.4866 90.3221 30.4866 88.919C30.4866 87.5159 31.624 86.3784 33.0271 86.3784Z" fill="black"/>
<path d="M48.2703 86.3784C49.6734 86.3784 50.8108 87.5159 50.8108 88.919C50.8108 90.3221 49.6734 91.4595 48.2703 91.4595C46.8672 91.4595 45.7297 90.3221 45.7297 88.919C45.7297 87.5159 46.8672 86.3784 48.2703 86.3784Z" fill="black"/>
<path d="M53.3513 86.3784C54.7545 86.3784 55.8919 87.5159 55.8919 88.919C55.8919 90.3221 54.7545 91.4595 53.3513 91.4595C51.9482 91.4595 50.8108 90.3221 50.8108 88.919C50.8108 87.5159 51.9482 86.3784 53.3513 86.3784Z" fill="black"/>
<path d="M58.4324 86.3784C59.8355 86.3784 60.9729 87.5159 60.9729 88.919C60.9729 90.3221 59.8355 91.4595 58.4324 91.4595C57.0293 91.4595 55.8918 90.3221 55.8918 88.919C55.8918 87.5159 57.0293 86.3784 58.4324 86.3784Z" fill="black"/>
<path d="M129.568 86.3784C130.971 86.3784 132.108 87.5159 132.108 88.919C132.108 90.3221 130.971 91.4595 129.568 91.4595C128.165 91.4595 127.027 90.3221 127.027 88.919C127.027 87.5159 128.165 86.3784 129.568 86.3784Z" fill="black"/>
<path d="M139.73 86.3784C141.133 86.3784 142.27 87.5159 142.27 88.919C142.27 90.3221 141.133 91.4595 139.73 91.4595C138.327 91.4595 137.189 90.3221 137.189 88.919C137.189 87.5159 138.327 86.3784 139.73 86.3784Z" fill="black"/>
<path d="M149.892 86.3784C151.295 86.3784 152.432 87.5159 152.432 88.919C152.432 90.3221 151.295 91.4595 149.892 91.4595C148.489 91.4595 147.351 90.3221 147.351 88.919C147.351 87.5159 148.489 86.3784 149.892 86.3784Z" fill="black"/>
<path d="M160.054 86.3784C161.457 86.3784 162.595 87.5159 162.595 88.919C162.595 90.3221 161.457 91.4595 160.054 91.4595C158.651 91.4595 157.513 90.3221 157.513 88.919C157.513 87.5159 158.651 86.3784 160.054 86.3784Z" fill="black"/>
<path d="M165.135 86.3784C166.538 86.3784 167.676 87.5159 167.676 88.919C167.676 90.3221 166.538 91.4595 165.135 91.4595C163.732 91.4595 162.594 90.3221 162.594 88.919C162.594 87.5159 163.732 86.3784 165.135 86.3784Z" fill="black"/>
<path d="M175.297 86.3784C176.701 86.3784 177.838 87.5159 177.838 88.919C177.838 90.3221 176.701 91.4595 175.297 91.4595C173.894 91.4595 172.757 90.3221 172.757 88.919C172.757 87.5159 173.894 86.3784 175.297 86.3784Z" fill="black"/>
<path d="M12.7026 91.4595C14.1058 91.4595 15.2432 92.597 15.2432 94.0001C15.2432 95.4032 14.1058 96.5406 12.7026 96.5406C11.2996 96.5406 10.1621 95.4032 10.1621 94.0001C10.1621 92.597 11.2996 91.4595 12.7026 91.4595Z" fill="black"/>
<path d="M22.8648 91.4595C24.2679 91.4595 25.4053 92.597 25.4053 94.0001C25.4053 95.4032 24.2679 96.5406 22.8648 96.5406C21.4617 96.5406 20.3242 95.4032 20.3242 94.0001C20.3242 92.597 21.4617 91.4595 22.8648 91.4595Z" fill="black"/>
<path d="M27.9461 91.4595C29.3492 91.4595 30.4866 92.597 30.4866 94.0001C30.4866 95.4032 29.3492 96.5406 27.9461 96.5406C26.543 96.5406 25.4055 95.4032 25.4055 94.0001C25.4055 92.597 26.543 91.4595 27.9461 91.4595Z" fill="black"/>
<path d="M43.1892 91.4595C44.5924 91.4595 45.7298 92.597 45.7298 94.0001C45.7298 95.4032 44.5924 96.5406 43.1892 96.5406C41.7861 96.5406 40.6487 95.4032 40.6487 94.0001C40.6487 92.597 41.7861 91.4595 43.1892 91.4595Z" fill="black"/>
<path d="M129.568 91.4595C130.971 91.4595 132.108 92.597 132.108 94.0001C132.108 95.4032 130.971 96.5406 129.568 96.5406C128.165 96.5406 127.027 95.4032 127.027 94.0001C127.027 92.597 128.165 91.4595 129.568 91.4595Z" fill="black"/>
<path d="M139.73 91.4595C141.133 91.4595 142.27 92.597 142.27 94.0001C142.27 95.4032 141.133 96.5406 139.73 96.5406C138.327 96.5406 137.189 95.4032 137.189 94.0001C137.189 92.597 138.327 91.4595 139.73 91.4595Z" fill="black"/>
<path d="M149.892 91.4595C151.295 91.4595 152.432 92.597 152.432 94.0001C152.432 95.4032 151.295 96.5406 149.892 96.5406C148.489 96.5406 147.351 95.4032 147.351 94.0001C147.351 92.597 148.489 91.4595 149.892 91.4595Z" fill="black"/>
<path d="M154.973 91.4595C156.376 91.4595 157.513 92.597 157.513 94.0001C157.513 95.4032 156.376 96.5406 154.973 96.5406C153.57 96.5406 152.432 95.4032 152.432 94.0001C152.432 92.597 153.57 91.4595 154.973 91.4595Z" fill="black"/>
<path d="M160.054 91.4595C161.457 91.4595 162.595 92.597 162.595 94.0001C162.595 95.4032 161.457 96.5406 160.054 96.5406C158.651 96.5406 157.513 95.4032 157.513 94.0001C157.513 92.597 158.651 91.4595 160.054 91.4595Z" fill="black"/>
<path d="M165.135 91.4595C166.538 91.4595 167.676 92.597 167.676 94.0001C167.676 95.4032 166.538 96.5406 165.135 96.5406C163.732 96.5406 162.594 95.4032 162.594 94.0001C162.594 92.597 163.732 91.4595 165.135 91.4595Z" fill="black"/>
<path d="M17.7837 96.5406C19.1869 96.5406 20.3242 97.678 20.3242 99.0811C20.3242 100.484 19.1869 101.622 17.7837 101.622C16.3806 101.622 15.2432 100.484 15.2432 99.0811C15.2432 97.678 16.3806 96.5406 17.7837 96.5406Z" fill="black"/>
<path d="M22.8648 96.5406C24.2679 96.5406 25.4053 97.678 25.4053 99.0811C25.4053 100.484 24.2679 101.622 22.8648 101.622C21.4617 101.622 20.3242 100.484 20.3242 99.0811C20.3242 97.678 21.4617 96.5406 22.8648 96.5406Z" fill="black"/>
<path d="M27.9461 96.5406C29.3492 96.5406 30.4866 97.678 30.4866 99.0811C30.4866 100.484 29.3492 101.622 27.9461 101.622C26.543 101.622 25.4055 100.484 25.4055 99.0811C25.4055 97.678 26.543 96.5406 27.9461 96.5406Z" fill="black"/>
<path d="M33.0271 96.5406C34.4303 96.5406 35.5677 97.678 35.5677 99.0811C35.5677 100.484 34.4303 101.622 33.0271 101.622C31.624 101.622 30.4866 100.484 30.4866 99.0811C30.4866 97.678 31.624 96.5406 33.0271 96.5406Z" fill="black"/>
<path d="M38.1082 96.5406C39.5113 96.5406 40.6487 97.678 40.6487 99.0811C40.6487 100.484 39.5113 101.622 38.1082 101.622C36.7051 101.622 35.5676 100.484 35.5676 99.0811C35.5676 97.678 36.7051 96.5406 38.1082 96.5406Z" fill="black"/>
<path d="M53.3513 96.5406C54.7545 96.5406 55.8919 97.678 55.8919 99.0811C55.8919 100.484 54.7545 101.622 53.3513 101.622C51.9482 101.622 50.8108 100.484 50.8108 99.0811C50.8108 97.678 51.9482 96.5406 53.3513 96.5406Z" fill="black"/>
<path d="M58.4324 96.5406C59.8355 96.5406 60.9729 97.678 60.9729 99.0811C60.9729 100.484 59.8355 101.622 58.4324 101.622C57.0293 101.622 55.8918 100.484 55.8918 99.0811C55.8918 97.678 57.0293 96.5406 58.4324 96.5406Z" fill="black"/>
<path d="M63.5134 96.5406C64.9166 96.5406 66.054 97.678 66.054 99.0811C66.054 100.484 64.9166 101.622 63.5134 101.622C62.1104 101.622 60.9729 100.484 60.9729 99.0811C60.9729 97.678 62.1104 96.5406 63.5134 96.5406Z" fill="black"/>
<path d="M129.568 96.5406C130.971 96.5406 132.108 97.678 132.108 99.0811C132.108 100.484 130.971 101.622 129.568 101.622C128.165 101.622 127.027 100.484 127.027 99.0811C127.027 97.678 128.165 96.5406 129.568 96.5406Z" fill="black"/>
<path d="M134.649 96.5406C136.052 96.5406 137.189 97.678 137.189 99.0811C137.189 100.484 136.052 101.622 134.649 101.622C133.246 101.622 132.108 100.484 132.108 99.0811C132.108 97.678 133.246 96.5406 134.649 96.5406Z" fill="black"/>
<path d="M144.811 96.5406C146.214 96.5406 147.351 97.678 147.351 99.0811C147.351 100.484 146.214 101.622 144.811 101.622C143.408 101.622 142.27 100.484 142.27 99.0811C142.27 97.678 143.408 96.5406 144.811 96.5406Z" fill="black"/>
<path d="M149.892 96.5406C151.295 96.5406 152.432 97.678 152.432 99.0811C152.432 100.484 151.295 101.622 149.892 101.622C148.489 101.622 147.351 100.484 147.351 99.0811C147.351 97.678 148.489 96.5406 149.892 96.5406Z" fill="black"/>
<path d="M170.216 96.5406C171.619 96.5406 172.757 97.678 172.757 99.0811C172.757 100.484 171.619 101.622 170.216 101.622C168.813 101.622 167.676 100.484 167.676 99.0811C167.676 97.678 168.813 96.5406 170.216 96.5406Z" fill="black"/>
<path d="M175.297 96.5406C176.701 96.5406 177.838 97.678 177.838 99.0811C177.838 100.484 176.701 101.622 175.297 101.622C173.894 101.622 172.757 100.484 172.757 99.0811C172.757 97.678 173.894 96.5406 175.297 96.5406Z" fill="black"/>
<path d="M12.7026 101.622C14.1058 101.622 15.2432 102.759 15.2432 104.162C15.2432 105.565 14.1058 106.703 12.7026 106.703C11.2996 106.703 10.1621 105.565 10.1621 104.162C10.1621 102.759 11.2996 101.622 12.7026 101.622Z" fill="black"/>
<path d="M33.0271 101.622C34.4303 101.622 35.5677 102.759 35.5677 104.162C35.5677 105.565 34.4303 106.703 33.0271 106.703C31.624 106.703 30.4866 105.565 30.4866 104.162C30.4866 102.759 31.624 101.622 33.0271 101.622Z" fill="black"/>
<path d="M38.1082 101.622C39.5113 101.622 40.6487 102.759 40.6487 104.162C40.6487 105.565 39.5113 106.703 38.1082 106.703C36.7051 106.703 35.5676 105.565 35.5676 104.162C35.5676 102.759 36.7051 101.622 38.1082 101.622Z" fill="black"/>
<path d="M43.1892 101.622C44.5924 101.622 45.7298 102.759 45.7298 104.162C45.7298 105.565 44.5924 106.703 43.1892 106.703C41.7861 106.703 40.6487 105.565 40.6487 104.162C40.6487 102.759 41.7861 101.622 43.1892 101.622Z" fill="black"/>
<path d="M48.2703 101.622C49.6734 101.622 50.8108 102.759 50.8108 104.162C50.8108 105.565 49.6734 106.703 48.2703 106.703C46.8672 106.703 45.7297 105.565 45.7297 104.162C45.7297 102.759 46.8672 101.622 48.2703 101.622Z" fill="black"/>
<path d="M53.3513 101.622C54.7545 101.622 55.8919 102.759 55.8919 104.162C55.8919 105.565 54.7545 106.703 53.3513 106.703C51.9482 106.703 50.8108 105.565 50.8108 104.162C50.8108 102.759 51.9482 101.622 53.3513 101.622Z" fill="black"/>
<path d="M63.5134 101.622C64.9166 101.622 66.054 102.759 66.054 104.162C66.054 105.565 64.9166 106.703 63.5134 106.703C62.1104 106.703 60.9729 105.565 60.9729 104.162C60.9729 102.759 62.1104 101.622 63.5134 101.622Z" fill="black"/>
<path d="M124.487 101.622C125.89 101.622 127.027 102.759 127.027 104.162C127.027 105.565 125.89 106.703 124.487 106.703C123.083 106.703 121.946 105.565 121.946 104.162C121.946 102.759 123.083 101.622 124.487 101.622Z" fill="black"/>
<path d="M129.568 101.622C130.971 101.622 132.108 102.759 132.108 104.162C132.108 105.565 130.971 106.703 129.568 106.703C128.165 106.703 127.027 105.565 127.027 104.162C127.027 102.759 128.165 101.622 129.568 101.622Z" fill="black"/>
<path d="M139.73 101.622C141.133 101.622 142.27 102.759 142.27 104.162C142.27 105.565 141.133 106.703 139.73 106.703C138.327 106.703 137.189 105.565 137.189 104.162C137.189 102.759 138.327 101.622 139.73 101.622Z" fill="black"/>
<path d="M149.892 101.622C151.295 101.622 152.432 102.759 152.432 104.162C152.432 105.565 151.295 106.703 149.892 106.703C148.489 106.703 147.351 105.565 147.351 104.162C147.351 102.759 148.489 101.622 149.892 101.622Z" fill="black"/>
<path d="M160.054 101.622C161.457 101.622 162.595 102.759 162.595 104.162C162.595 105.565 161.457 106.703 160.054 106.703C158.651 106.703 157.513 105.565 157.513 104.162C157.513 102.759 158.651 101.622 160.054 101.622Z" fill="black"/>
<path d="M165.135 101.622C166.538 101.622 167.676 102.759 167.676 104.162C167.676 105.565 166.538 106.703 165.135 106.703C163.732 106.703 162.594 105.565 162.594 104.162C162.594 102.759 163.732 101.622 165.135 101.622Z" fill="black"/>
<path d="M175.297 101.622C176.701 101.622 177.838 102.759 177.838 104.162C177.838 105.565 176.701 106.703 175.297 106.703C173.894 106.703 172.757 105.565 172.757 104.162C172.757 102.759 173.894 101.622 175.297 101.622Z" fill="black"/>
<path d="M12.7026 106.703C14.1058 106.703 15.2432 107.84 15.2432 109.243C15.2432 110.646 14.1058 111.784 12.7026 111.784C11.2996 111.784 10.1621 110.646 10.1621 109.243C10.1621 107.84 11.2996 106.703 12.7026 106.703Z" fill="black"/>
<path d="M17.7837 106.703C19.1869 106.703 20.3242 107.84 20.3242 109.243C20.3242 110.646 19.1869 111.784 17.7837 111.784C16.3806 111.784 15.2432 110.646 15.2432 109.243C15.2432 107.84 16.3806 106.703 17.7837 106.703Z" fill="black"/>
<path d="M27.9461 106.703C29.3492 106.703 30.4866 107.84 30.4866 109.243C30.4866 110.646 29.3492 111.784 27.9461 111.784C26.543 111.784 25.4055 110.646 25.4055 109.243C25.4055 107.84 26.543 106.703 27.9461 106.703Z" fill="black"/>
<path d="M33.0271 106.703C34.4303 106.703 35.5677 107.84 35.5677 109.243C35.5677 110.646 34.4303 111.784 33.0271 111.784C31.624 111.784 30.4866 110.646 30.4866 109.243C30.4866 107.84 31.624 106.703 33.0271 106.703Z" fill="black"/>
<path d="M53.3513 106.703C54.7545 106.703 55.8919 107.84 55.8919 109.243C55.8919 110.646 54.7545 111.784 53.3513 111.784C51.9482 111.784 50.8108 110.646 50.8108 109.243C50.8108 107.84 51.9482 106.703 53.3513 106.703Z" fill="black"/>
<path d="M129.568 106.703C130.971 106.703 132.108 107.84 132.108 109.243C132.108 110.646 130.971 111.784 129.568 111.784C128.165 111.784 127.027 110.646 127.027 109.243C127.027 107.84 128.165 106.703 129.568 106.703Z" fill="black"/>
<path d="M134.649 106.703C136.052 106.703 137.189 107.84 137.189 109.243C137.189 110.646 136.052 111.784 134.649 111.784C133.246 111.784 132.108 110.646 132.108 109.243C132.108 107.84 133.246 106.703 134.649 106.703Z" fill="black"/>
<path d="M139.73 106.703C141.133 106.703 142.27 107.84 142.27 109.243C142.27 110.646 141.133 111.784 139.73 111.784C138.327 111.784 137.189 110.646 137.189 109.243C137.189 107.84 138.327 106.703 139.73 106.703Z" fill="black"/>
<path d="M149.892 106.703C151.295 106.703 152.432 107.84 152.432 109.243C152.432 110.646 151.295 111.784 149.892 111.784C148.489 111.784 147.351 110.646 147.351 109.243C147.351 107.84 148.489 106.703 149.892 106.703Z" fill="black"/>
<path d="M154.973 106.703C156.376 106.703 157.513 107.84 157.513 109.243C157.513 110.646 156.376 111.784 154.973 111.784C153.57 111.784 152.432 110.646 152.432 109.243C152.432 107.84 153.57 106.703 154.973 106.703Z" fill="black"/>
<path d="M160.054 106.703C161.457 106.703 162.595 107.84 162.595 109.243C162.595 110.646 161.457 111.784 160.054 111.784C158.651 111.784 157.513 110.646 157.513 109.243C157.513 107.84 158.651 106.703 160.054 106.703Z" fill="black"/>
<path d="M165.135 106.703C166.538 106.703 167.676 107.84 167.676 109.243C167.676 110.646 166.538 111.784 165.135 111.784C163.732 111.784 162.594 110.646 162.594 109.243C162.594 107.84 163.732 106.703 165.135 106.703Z" fill="black"/>
<path d="M12.7026 111.784C14.1058 111.784 15.2432 112.921 15.2432 114.324C15.2432 115.728 14.1058 116.865 12.7026 116.865C11.2996 116.865 10.1621 115.728 10.1621 114.324C10.1621 112.921 11.2996 111.784 12.7026 111.784Z" fill="black"/>
<path d="M22.8648 111.784C24.2679 111.784 25.4053 112.921 25.4053 114.324C25.4053 115.728 24.2679 116.865 22.8648 116.865C21.4617 116.865 20.3242 115.728 20.3242 114.324C20.3242 112.921 21.4617 111.784 22.8648 111.784Z" fill="black"/>
<path d="M38.1082 111.784C39.5113 111.784 40.6487 112.921 40.6487 114.324C40.6487 115.728 39.5113 116.865 38.1082 116.865C36.7051 116.865 35.5676 115.728 35.5676 114.324C35.5676 112.921 36.7051 111.784 38.1082 111.784Z" fill="black"/>
<path d="M43.1892 111.784C44.5924 111.784 45.7298 112.921 45.7298 114.324C45.7298 115.728 44.5924 116.865 43.1892 116.865C41.7861 116.865 40.6487 115.728 40.6487 114.324C40.6487 112.921 41.7861 111.784 43.1892 111.784Z" fill="black"/>
<path d="M48.2703 111.784C49.6734 111.784 50.8108 112.921 50.8108 114.324C50.8108 115.728 49.6734 116.865 48.2703 116.865C46.8672 116.865 45.7297 115.728 45.7297 114.324C45.7297 112.921 46.8672 111.784 48.2703 111.784Z" fill="black"/>
<path d="M58.4324 111.784C59.8355 111.784 60.9729 112.921 60.9729 114.324C60.9729 115.728 59.8355 116.865 58.4324 116.865C57.0293 116.865 55.8918 115.728 55.8918 114.324C55.8918 112.921 57.0293 111.784 58.4324 111.784Z" fill="black"/>
<path d="M124.487 111.784C125.89 111.784 127.027 112.921 127.027 114.324C127.027 115.728 125.89 116.865 124.487 116.865C123.083 116.865 121.946 115.728 121.946 114.324C121.946 112.921 123.083 111.784 124.487 111.784Z" fill="black"/>
<path d="M134.649 111.784C136.052 111.784 137.189 112.921 137.189 114.324C137.189 115.728 136.052 116.865 134.649 116.865C133.246 116.865 132.108 115.728 132.108 114.324C132.108 112.921 133.246 111.784 134.649 111.784Z" fill="black"/>
<path d="M139.73 111.784C141.133 111.784 142.27 112.921 142.27 114.324C142.27 115.728 141.133 116.865 139.73 116.865C138.327 116.865 137.189 115.728 137.189 114.324C137.189 112.921 138.327 111.784 139.73 111.784Z" fill="black"/>
<path d="M149.892 111.784C151.295 111.784 152.432 112.921 152.432 114.324C152.432 115.728 151.295 116.865 149.892 116.865C148.489 116.865 147.351 115.728 147.351 114.324C147.351 112.921 148.489 111.784 149.892 111.784Z" fill="black"/>
<path d="M154.973 111.784C156.376 111.784 157.513 112.921 157.513 114.324C157.513 115.728 156.376 116.865 154.973 116.865C153.57 116.865 152.432 115.728 152.432 114.324C152.432 112.921 153.57 111.784 154.973 111.784Z" fill="black"/>
<path d="M160.054 111.784C161.457 111.784 162.595 112.921 162.595 114.324C162.595 115.728 161.457 116.865 160.054 116.865C158.651 116.865 157.513 115.728 157.513 114.324C157.513 112.921 158.651 111.784 160.054 111.784Z" fill="black"/>
<path d="M12.7026 116.865C14.1058 116.865 15.2432 118.002 15.2432 119.405C15.2432 120.809 14.1058 121.946 12.7026 121.946C11.2996 121.946 10.1621 120.809 10.1621 119.405C10.1621 118.002 11.2996 116.865 12.7026 116.865Z" fill="black"/>
<path d="M22.8648 116.865C24.2679 116.865 25.4053 118.002 25.4053 119.405C25.4053 120.809 24.2679 121.946 22.8648 121.946C21.4617 121.946 20.3242 120.809 20.3242 119.405C20.3242 118.002 21.4617 116.865 22.8648 116.865Z" fill="black"/>
<path d="M27.9461 116.865C29.3492 116.865 30.4866 118.002 30.4866 119.405C30.4866 120.809 29.3492 121.946 27.9461 121.946C26.543 121.946 25.4055 120.809 25.4055 119.405C25.4055 118.002 26.543 116.865 27.9461 116.865Z" fill="black"/>
<path d="M48.2703 116.865C49.6734 116.865 50.8108 118.002 50.8108 119.405C50.8108 120.809 49.6734 121.946 48.2703 121.946C46.8672 121.946 45.7297 120.809 45.7297 119.405C45.7297 118.002 46.8672 116.865 48.2703 116.865Z" fill="black"/>
<path d="M58.4324 116.865C59.8355 116.865 60.9729 118.002 60.9729 119.405C60.9729 120.809 59.8355 121.946 58.4324 121.946C57.0293 121.946 55.8918 120.809 55.8918 119.405C55.8918 118.002 57.0293 116.865 58.4324 116.865Z" fill="black"/>
<path d="M63.5134 116.865C64.9166 116.865 66.054 118.002 66.054 119.405C66.054 120.809 64.9166 121.946 63.5134 121.946C62.1104 121.946 60.9729 120.809 60.9729 119.405C60.9729 118.002 62.1104 116.865 63.5134 116.865Z" fill="black"/>
<path d="M124.487 116.865C125.89 116.865 127.027 118.002 127.027 119.405C127.027 120.809 125.89 121.946 124.487 121.946C123.083 121.946 121.946 120.809 121.946 119.405C121.946 118.002 123.083 116.865 124.487 116.865Z" fill="black"/>
<path d="M129.568 116.865C130.971 116.865 132.108 118.002 132.108 119.405C132.108 120.809 130.971 121.946 129.568 121.946C128.165 121.946 127.027 120.809 127.027 119.405C127.027 118.002 128.165 116.865 129.568 116.865Z" fill="black"/>
<path d="M154.973 116.865C156.376 116.865 157.513 118.002 157.513 119.405C157.513 120.809 156.376 121.946 154.973 121.946C153.57 121.946 152.432 120.809 152.432 119.405C152.432 118.002 153.57 116.865 154.973 116.865Z" fill="black"/>
<path d="M160.054 116.865C161.457 116.865 162.595 118.002 162.595 119.405C162.595 120.809 161.457 121.946 160.054 121.946C158.651 121.946 157.513 120.809 157.513 119.405C157.513 118.002 158.651 116.865 160.054 116.865Z" fill="black"/>
<path d="M165.135 116.865C166.538 116.865 167.676 118.002 167.676 119.405C167.676 120.809 166.538 121.946 165.135 121.946C163.732 121.946 162.594 120.809 162.594 119.405C162.594 118.002 163.732 116.865 165.135 116.865Z" fill="black"/>
<path d="M12.7026 121.946C14.1058 121.946 15.2432 123.083 15.2432 124.487C15.2432 125.89 14.1058 127.027 12.7026 127.027C11.2996 127.027 10.1621 125.89 10.1621 124.487C10.1621 123.083 11.2996 121.946 12.7026 121.946Z" fill="black"/>
<path d="M27.9461 121.946C29.3492 121.946 30.4866 123.083 30.4866 124.487C30.4866 125.89 29.3492 127.027 27.9461 127.027C26.543 127.027 25.4055 125.89 25.4055 124.487C25.4055 123.083 26.543 121.946 27.9461 121.946Z" fill="black"/>
<path d="M33.0271 121.946C34.4303 121.946 35.5677 123.083 35.5677 124.487C35.5677 125.89 34.4303 127.027 33.0271 127.027C31.624 127.027 30.4866 125.89 30.4866 124.487C30.4866 123.083 31.624 121.946 33.0271 121.946Z" fill="black"/>
<path d="M38.1082 121.946C39.5113 121.946 40.6487 123.083 40.6487 124.487C40.6487 125.89 39.5113 127.027 38.1082 127.027C36.7051 127.027 35.5676 125.89 35.5676 124.487C35.5676 123.083 36.7051 121.946 38.1082 121.946Z" fill="black"/>
<path d="M43.1892 121.946C44.5924 121.946 45.7298 123.083 45.7298 124.487C45.7298 125.89 44.5924 127.027 43.1892 127.027C41.7861 127.027 40.6487 125.89 40.6487 124.487C40.6487 123.083 41.7861 121.946 43.1892 121.946Z" fill="black"/>
<path d="M63.5134 121.946C64.9166 121.946 66.054 123.083 66.054 124.487C66.054 125.89 64.9166 127.027 63.5134 127.027C62.1104 127.027 60.9729 125.89 60.9729 124.487C60.9729 123.083 62.1104 121.946 63.5134 121.946Z" fill="black"/>
<path d="M78.7568 121.946C80.16 121.946 81.2974 123.083 81.2974 124.487C81.2974 125.89 80.16 127.027 78.7568 127.027C77.3538 127.027 76.2163 125.89 76.2163 124.487C76.2163 123.083 77.3538 121.946 78.7568 121.946Z" fill="black"/>
<path d="M83.8379 121.946C85.2411 121.946 86.3784 123.083 86.3784 124.487C86.3784 125.89 85.2411 127.027 83.8379 127.027C82.4348 127.027 81.2974 125.89 81.2974 124.487C81.2974 123.083 82.4348 121.946 83.8379 121.946Z" fill="black"/>
<path d="M88.919 121.946C90.3221 121.946 91.4595 123.083 91.4595 124.487C91.4595 125.89 90.3221 127.027 88.919 127.027C87.5159 127.027 86.3784 125.89 86.3784 124.487C86.3784 123.083 87.5159 121.946 88.919 121.946Z" fill="black"/>
<path d="M94 121.946C95.4032 121.946 96.5406 123.083 96.5406 124.487C96.5406 125.89 95.4032 127.027 94 127.027C92.5969 127.027 91.4595 125.89 91.4595 124.487C91.4595 123.083 92.5969 121.946 94 121.946Z" fill="black"/>
<path d="M119.405 121.946C120.808 121.946 121.946 123.083 121.946 124.487C121.946 125.89 120.808 127.027 119.405 127.027C118.002 127.027 116.865 125.89 116.865 124.487C116.865 123.083 118.002 121.946 119.405 121.946Z" fill="black"/>
<path d="M134.649 121.946C136.052 121.946 137.189 123.083 137.189 124.487C137.189 125.89 136.052 127.027 134.649 127.027C133.246 127.027 132.108 125.89 132.108 124.487C132.108 123.083 133.246 121.946 134.649 121.946Z" fill="black"/>
<path d="M154.973 121.946C156.376 121.946 157.513 123.083 157.513 124.487C157.513 125.89 156.376 127.027 154.973 127.027C153.57 127.027 152.432 125.89 152.432 124.487C152.432 123.083 153.57 121.946 154.973 121.946Z" fill="black"/>
<path d="M160.054 121.946C161.457 121.946 162.595 123.083 162.595 124.487C162.595 125.89 161.457 127.027 160.054 127.027C158.651 127.027 157.513 125.89 157.513 124.487C157.513 123.083 158.651 121.946 160.054 121.946Z" fill="black"/>
<path d="M170.216 121.946C171.619 121.946 172.757 123.083 172.757 124.487C172.757 125.89 171.619 127.027 170.216 127.027C168.813 127.027 167.676 125.89 167.676 124.487C167.676 123.083 168.813 121.946 170.216 121.946Z" fill="black"/>
<path d="M12.7026 127.027C14.1058 127.027 15.2432 128.165 15.2432 129.568C15.2432 130.971 14.1058 132.108 12.7026 132.108C11.2996 132.108 10.1621 130.971 10.1621 129.568C10.1621 128.165 11.2996 127.027 12.7026 127.027Z" fill="black"/>
<path d="M22.8648 127.027C24.2679 127.027 25.4053 128.165 25.4053 129.568C25.4053 130.971 24.2679 132.108 22.8648 132.108C21.4617 132.108 20.3242 130.971 20.3242 129.568C20.3242 128.165 21.4617 127.027 22.8648 127.027Z" fill="black"/>
<path d="M38.1082 127.027C39.5113 127.027 40.6487 128.165 40.6487 129.568C40.6487 130.971 39.5113 132.108 38.1082 132.108C36.7051 132.108 35.5676 130.971 35.5676 129.568C35.5676 128.165 36.7051 127.027 38.1082 127.027Z" fill="black"/>
<path d="M48.2703 127.027C49.6734 127.027 50.8108 128.165 50.8108 129.568C50.8108 130.971 49.6734 132.108 48.2703 132.108C46.8672 132.108 45.7297 130.971 45.7297 129.568C45.7297 128.165 46.8672 127.027 48.2703 127.027Z" fill="black"/>
<path d="M53.3513 127.027C54.7545 127.027 55.8919 128.165 55.8919 129.568C55.8919 130.971 54.7545 132.108 53.3513 132.108C51.9482 132.108 50.8108 130.971 50.8108 129.568C50.8108 128.165 51.9482 127.027 53.3513 127.027Z" fill="black"/>
<path d="M58.4324 127.027C59.8355 127.027 60.9729 128.165 60.9729 129.568C60.9729 130.971 59.8355 132.108 58.4324 132.108C57.0293 132.108 55.8918 130.971 55.8918 129.568C55.8918 128.165 57.0293 127.027 58.4324 127.027Z" fill="black"/>
<path d="M63.5134 127.027C64.9166 127.027 66.054 128.165 66.054 129.568C66.054 130.971 64.9166 132.108 63.5134 132.108C62.1104 132.108 60.9729 130.971 60.9729 129.568C60.9729 128.165 62.1104 127.027 63.5134 127.027Z" fill="black"/>
<path d="M73.6758 127.027C75.079 127.027 76.2163 128.165 76.2163 129.568C76.2163 130.971 75.079 132.108 73.6758 132.108C72.2727 132.108 71.1353 130.971 71.1353 129.568C71.1353 128.165 72.2727 127.027 73.6758 127.027Z" fill="black"/>
<path d="M94 127.027C95.4032 127.027 96.5406 128.165 96.5406 129.568C96.5406 130.971 95.4032 132.108 94 132.108C92.5969 132.108 91.4595 130.971 91.4595 129.568C91.4595 128.165 92.5969 127.027 94 127.027Z" fill="black"/>
<path d="M99.0811 127.027C100.484 127.027 101.622 128.165 101.622 129.568C101.622 130.971 100.484 132.108 99.0811 132.108C97.678 132.108 96.5405 130.971 96.5405 129.568C96.5405 128.165 97.678 127.027 99.0811 127.027Z" fill="black"/>
<path d="M109.243 127.027C110.646 127.027 111.784 128.165 111.784 129.568C111.784 130.971 110.646 132.108 109.243 132.108C107.84 132.108 106.703 130.971 106.703 129.568C106.703 128.165 107.84 127.027 109.243 127.027Z" fill="black"/>
<path d="M114.324 127.027C115.727 127.027 116.865 128.165 116.865 129.568C116.865 130.971 115.727 132.108 114.324 132.108C112.921 132.108 111.784 130.971 111.784 129.568C111.784 128.165 112.921 127.027 114.324 127.027Z" fill="black"/>
<path d="M124.487 127.027C125.89 127.027 127.027 128.165 127.027 129.568C127.027 130.971 125.89 132.108 124.487 132.108C123.083 132.108 121.946 130.971 121.946 129.568C121.946 128.165 123.083 127.027 124.487 127.027Z" fill="black"/>
<path d="M129.568 127.027C130.971 127.027 132.108 128.165 132.108 129.568C132.108 130.971 130.971 132.108 129.568 132.108C128.165 132.108 127.027 130.971 127.027 129.568C127.027 128.165 128.165 127.027 129.568 127.027Z" fill="black"/>
<path d="M149.892 127.027C151.295 127.027 152.432 128.165 152.432 129.568C152.432 130.971 151.295 132.108 149.892 132.108C148.489 132.108 147.351 130.971 147.351 129.568C147.351 128.165 148.489 127.027 149.892 127.027Z" fill="black"/>
<path d="M160.054 127.027C161.457 127.027 162.595 128.165 162.595 129.568C162.595 130.971 161.457 132.108 160.054 132.108C158.651 132.108 157.513 130.971 157.513 129.568C157.513 128.165 158.651 127.027 160.054 127.027Z" fill="black"/>
<path d="M165.135 127.027C166.538 127.027 167.676 128.165 167.676 129.568C167.676 130.971 166.538 132.108 165.135 132.108C163.732 132.108 162.594 130.971 162.594 129.568C162.594 128.165 163.732 127.027 165.135 127.027Z" fill="black"/>
<path d="M12.7026 132.108C14.1058 132.108 15.2432 133.246 15.2432 134.649C15.2432 136.052 14.1058 137.189 12.7026 137.189C11.2996 137.189 10.1621 136.052 10.1621 134.649C10.1621 133.246 11.2996 132.108 12.7026 132.108Z" fill="black"/>
<path d="M17.7837 132.108C19.1869 132.108 20.3242 133.246 20.3242 134.649C20.3242 136.052 19.1869 137.189 17.7837 137.189C16.3806 137.189 15.2432 136.052 15.2432 134.649C15.2432 133.246 16.3806 132.108 17.7837 132.108Z" fill="black"/>
<path d="M27.9461 132.108C29.3492 132.108 30.4866 133.246 30.4866 134.649C30.4866 136.052 29.3492 137.189 27.9461 137.189C26.543 137.189 25.4055 136.052 25.4055 134.649C25.4055 133.246 26.543 132.108 27.9461 132.108Z" fill="black"/>
<path d="M33.0271 132.108C34.4303 132.108 35.5677 133.246 35.5677 134.649C35.5677 136.052 34.4303 137.189 33.0271 137.189C31.624 137.189 30.4866 136.052 30.4866 134.649C30.4866 133.246 31.624 132.108 33.0271 132.108Z" fill="black"/>
<path d="M43.1892 132.108C44.5924 132.108 45.7298 133.246 45.7298 134.649C45.7298 136.052 44.5924 137.189 43.1892 137.189C41.7861 137.189 40.6487 136.052 40.6487 134.649C40.6487 133.246 41.7861 132.108 43.1892 132.108Z" fill="black"/>
<path d="M53.3513 132.108C54.7545 132.108 55.8919 133.246 55.8919 134.649C55.8919 136.052 54.7545 137.189 53.3513 137.189C51.9482 137.189 50.8108 136.052 50.8108 134.649C50.8108 133.246 51.9482 132.108 53.3513 132.108Z" fill="black"/>
<path d="M58.4324 132.108C59.8355 132.108 60.9729 133.246 60.9729 134.649C60.9729 136.052 59.8355 137.189 58.4324 137.189C57.0293 137.189 55.8918 136.052 55.8918 134.649C55.8918 133.246 57.0293 132.108 58.4324 132.108Z" fill="black"/>
<path d="M63.5134 132.108C64.9166 132.108 66.054 133.246 66.054 134.649C66.054 136.052 64.9166 137.189 63.5134 137.189C62.1104 137.189 60.9729 136.052 60.9729 134.649C60.9729 133.246 62.1104 132.108 63.5134 132.108Z" fill="black"/>
<path d="M83.8379 132.108C85.2411 132.108 86.3784 133.246 86.3784 134.649C86.3784 136.052 85.2411 137.189 83.8379 137.189C82.4348 137.189 81.2974 136.052 81.2974 134.649C81.2974 133.246 82.4348 132.108 83.8379 132.108Z" fill="black"/>
<path d="M88.919 132.108C90.3221 132.108 91.4595 133.246 91.4595 134.649C91.4595 136.052 90.3221 137.189 88.919 137.189C87.5159 137.189 86.3784 136.052 86.3784 134.649C86.3784 133.246 87.5159 132.108 88.919 132.108Z" fill="black"/>
<path d="M99.0811 132.108C100.484 132.108 101.622 133.246 101.622 134.649C101.622 136.052 100.484 137.189 99.0811 137.189C97.678 137.189 96.5405 136.052 96.5405 134.649C96.5405 133.246 97.678 132.108 99.0811 132.108Z" fill="black"/>
<path d="M109.243 132.108C110.646 132.108 111.784 133.246 111.784 134.649C111.784 136.052 110.646 137.189 109.243 137.189C107.84 137.189 106.703 136.052 106.703 134.649C106.703 133.246 107.84 132.108 109.243 132.108Z" fill="black"/>
<path d="M134.649 132.108C136.052 132.108 137.189 133.246 137.189 134.649C137.189 136.052 136.052 137.189 134.649 137.189C133.246 137.189 132.108 136.052 132.108 134.649C132.108 133.246 133.246 132.108 134.649 132.108Z" fill="black"/>
<path d="M139.73 132.108C141.133 132.108 142.27 133.246 142.27 134.649C142.27 136.052 141.133 137.189 139.73 137.189C138.327 137.189 137.189 136.052 137.189 134.649C137.189 133.246 138.327 132.108 139.73 132.108Z" fill="black"/>
<path d="M144.811 132.108C146.214 132.108 147.351 133.246 147.351 134.649C147.351 136.052 146.214 137.189 144.811 137.189C143.408 137.189 142.27 136.052 142.27 134.649C142.27 133.246 143.408 132.108 144.811 132.108Z" fill="black"/>
<path d="M149.892 132.108C151.295 132.108 152.432 133.246 152.432 134.649C152.432 136.052 151.295 137.189 149.892 137.189C148.489 137.189 147.351 136.052 147.351 134.649C147.351 133.246 148.489 132.108 149.892 132.108Z" fill="black"/>
<path d="M154.973 132.108C156.376 132.108 157.513 133.246 157.513 134.649C157.513 136.052 156.376 137.189 154.973 137.189C153.57 137.189 152.432 136.052 152.432 134.649C152.432 133.246 153.57 132.108 154.973 132.108Z" fill="black"/>
<path d="M170.216 132.108C171.619 132.108 172.757 133.246 172.757 134.649C172.757 136.052 171.619 137.189 170.216 137.189C168.813 137.189 167.676 136.052 167.676 134.649C167.676 133.246 168.813 132.108 170.216 132.108Z" fill="black"/>
<path d="M53.3513 137.189C54.7545 137.189 55.8919 138.327 55.8919 139.73C55.8919 141.133 54.7545 142.27 53.3513 142.27C51.9482 142.27 50.8108 141.133 50.8108 139.73C50.8108 138.327 51.9482 137.189 53.3513 137.189Z" fill="black"/>
<path d="M63.5134 137.189C64.9166 137.189 66.054 138.327 66.054 139.73C66.054 141.133 64.9166 142.27 63.5134 142.27C62.1104 142.27 60.9729 141.133 60.9729 139.73C60.9729 138.327 62.1104 137.189 63.5134 137.189Z" fill="black"/>
<path d="M73.6758 137.189C75.079 137.189 76.2163 138.327 76.2163 139.73C76.2163 141.133 75.079 142.27 73.6758 142.27C72.2727 142.27 71.1353 141.133 71.1353 139.73C71.1353 138.327 72.2727 137.189 73.6758 137.189Z" fill="black"/>
<path d="M99.0811 137.189C100.484 137.189 101.622 138.327 101.622 139.73C101.622 141.133 100.484 142.27 99.0811 142.27C97.678 142.27 96.5405 141.133 96.5405 139.73C96.5405 138.327 97.678 137.189 99.0811 137.189Z" fill="black"/>
<path d="M114.324 137.189C115.727 137.189 116.865 138.327 116.865 139.73C116.865 141.133 115.727 142.27 114.324 142.27C112.921 142.27 111.784 141.133 111.784 139.73C111.784 138.327 112.921 137.189 114.324 137.189Z" fill="black"/>
<path d="M124.487 137.189C125.89 137.189 127.027 138.327 127.027 139.73C127.027 141.133 125.89 142.27 124.487 142.27C123.083 142.27 121.946 141.133 121.946 139.73C121.946 138.327 123.083 137.189 124.487 137.189Z" fill="black"/>
<path d="M134.649 137.189C136.052 137.189 137.189 138.327 137.189 139.73C137.189 141.133 136.052 142.27 134.649 142.27C133.246 142.27 132.108 141.133 132.108 139.73C132.108 138.327 133.246 137.189 134.649 137.189Z" fill="black"/>
<path d="M154.973 137.189C156.376 137.189 157.513 138.327 157.513 139.73C157.513 141.133 156.376 142.27 154.973 142.27C153.57 142.27 152.432 141.133 152.432 139.73C152.432 138.327 153.57 137.189 154.973 137.189Z" fill="black"/>
<path d="M165.135 137.189C166.538 137.189 167.676 138.327 167.676 139.73C167.676 141.133 166.538 142.27 165.135 142.27C163.732 142.27 162.594 141.133 162.594 139.73C162.594 138.327 163.732 137.189 165.135 137.189Z" fill="black"/>
<path d="M170.216 137.189C171.619 137.189 172.757 138.327 172.757 139.73C172.757 141.133 171.619 142.27 170.216 142.27C168.813 142.27 167.676 141.133 167.676 139.73C167.676 138.327 168.813 137.189 170.216 137.189Z" fill="black"/>
<path d="M175.297 137.189C176.701 137.189 177.838 138.327 177.838 139.73C177.838 141.133 176.701 142.27 175.297 142.27C173.894 142.27 172.757 141.133 172.757 139.73C172.757 138.327 173.894 137.189 175.297 137.189Z" fill="black"/>
<path d="M58.4324 142.27C59.8355 142.27 60.9729 143.408 60.9729 144.811C60.9729 146.214 59.8355 147.351 58.4324 147.351C57.0293 147.351 55.8918 146.214 55.8918 144.811C55.8918 143.408 57.0293 142.27 58.4324 142.27Z" fill="black"/>
<path d="M63.5134 142.27C64.9166 142.27 66.054 143.408 66.054 144.811C66.054 146.214 64.9166 147.351 63.5134 147.351C62.1104 147.351 60.9729 146.214 60.9729 144.811C60.9729 143.408 62.1104 142.27 63.5134 142.27Z" fill="black"/>
<path d="M68.5945 142.27C69.9977 142.27 71.135 143.408 71.135 144.811C71.135 146.214 69.9977 147.351 68.5945 147.351C67.1914 147.351 66.054 146.214 66.054 144.811C66.054 143.408 67.1914 142.27 68.5945 142.27Z" fill="black"/>
<path d="M78.7568 142.27C80.16 142.27 81.2974 143.408 81.2974 144.811C81.2974 146.214 80.16 147.351 78.7568 147.351C77.3538 147.351 76.2163 146.214 76.2163 144.811C76.2163 143.408 77.3538 142.27 78.7568 142.27Z" fill="black"/>
<path d="M83.8379 142.27C85.2411 142.27 86.3784 143.408 86.3784 144.811C86.3784 146.214 85.2411 147.351 83.8379 147.351C82.4348 147.351 81.2974 146.214 81.2974 144.811C81.2974 143.408 82.4348 142.27 83.8379 142.27Z" fill="black"/>
<path d="M88.919 142.27C90.3221 142.27 91.4595 143.408 91.4595 144.811C91.4595 146.214 90.3221 147.351 88.919 147.351C87.5159 147.351 86.3784 146.214 86.3784 144.811C86.3784 143.408 87.5159 142.27 88.919 142.27Z" fill="black"/>
<path d="M94 142.27C95.4032 142.27 96.5406 143.408 96.5406 144.811C96.5406 146.214 95.4032 147.351 94 147.351C92.5969 147.351 91.4595 146.214 91.4595 144.811C91.4595 143.408 92.5969 142.27 94 142.27Z" fill="black"/>
<path d="M99.0811 142.27C100.484 142.27 101.622 143.408 101.622 144.811C101.622 146.214 100.484 147.351 99.0811 147.351C97.678 147.351 96.5405 146.214 96.5405 144.811C96.5405 143.408 97.678 142.27 99.0811 142.27Z" fill="black"/>
<path d="M104.162 142.27C105.565 142.27 106.703 143.408 106.703 144.811C106.703 146.214 105.565 147.351 104.162 147.351C102.759 147.351 101.622 146.214 101.622 144.811C101.622 143.408 102.759 142.27 104.162 142.27Z" fill="black"/>
<path d="M109.243 142.27C110.646 142.27 111.784 143.408 111.784 144.811C111.784 146.214 110.646 147.351 109.243 147.351C107.84 147.351 106.703 146.214 106.703 144.811C106.703 143.408 107.84 142.27 109.243 142.27Z" fill="black"/>
<path d="M114.324 142.27C115.727 142.27 116.865 143.408 116.865 144.811C116.865 146.214 115.727 147.351 114.324 147.351C112.921 147.351 111.784 146.214 111.784 144.811C111.784 143.408 112.921 142.27 114.324 142.27Z" fill="black"/>
<path d="M119.405 142.27C120.808 142.27 121.946 143.408 121.946 144.811C121.946 146.214 120.808 147.351 119.405 147.351C118.002 147.351 116.865 146.214 116.865 144.811C116.865 143.408 118.002 142.27 119.405 142.27Z" fill="black"/>
<path d="M129.568 142.27C130.971 142.27 132.108 143.408 132.108 144.811C132.108 146.214 130.971 147.351 129.568 147.351C128.165 147.351 127.027 146.214 127.027 144.811C127.027 143.408 128.165 142.27 129.568 142.27Z" fill="black"/>
<path d="M134.649 142.27C136.052 142.27 137.189 143.408 137.189 144.811C137.189 146.214 136.052 147.351 134.649 147.351C133.246 147.351 132.108 146.214 132.108 144.811C132.108 143.408 133.246 142.27 134.649 142.27Z" fill="black"/>
<path d="M144.811 142.27C146.214 142.27 147.351 143.408 147.351 144.811C147.351 146.214 146.214 147.351 144.811 147.351C143.408 147.351 142.27 146.214 142.27 144.811C142.27 143.408 143.408 142.27 144.811 142.27Z" fill="black"/>
<path d="M154.973 142.27C156.376 142.27 157.513 143.408 157.513 144.811C157.513 146.214 156.376 147.351 154.973 147.351C153.57 147.351 152.432 146.214 152.432 144.811C152.432 143.408 153.57 142.27 154.973 142.27Z" fill="black"/>
<path d="M170.216 142.27C171.619 142.27 172.757 143.408 172.757 144.811C172.757 146.214 171.619 147.351 170.216 147.351C168.813 147.351 167.676 146.214 167.676 144.811C167.676 143.408 168.813 142.27 170.216 142.27Z" fill="black"/>
<path d="M53.3513 147.351C54.7545 147.351 55.8919 148.489 55.8919 149.892C55.8919 151.295 54.7545 152.432 53.3513 152.432C51.9482 152.432 50.8108 151.295 50.8108 149.892C50.8108 148.489 51.9482 147.351 53.3513 147.351Z" fill="black"/>
<path d="M58.4324 147.351C59.8355 147.351 60.9729 148.489 60.9729 149.892C60.9729 151.295 59.8355 152.432 58.4324 152.432C57.0293 152.432 55.8918 151.295 55.8918 149.892C55.8918 148.489 57.0293 147.351 58.4324 147.351Z" fill="black"/>
<path d="M63.5134 147.351C64.9166 147.351 66.054 148.489 66.054 149.892C66.054 151.295 64.9166 152.432 63.5134 152.432C62.1104 152.432 60.9729 151.295 60.9729 149.892C60.9729 148.489 62.1104 147.351 63.5134 147.351Z" fill="black"/>
<path d="M78.7568 147.351C80.16 147.351 81.2974 148.489 81.2974 149.892C81.2974 151.295 80.16 152.432 78.7568 152.432C77.3538 152.432 76.2163 151.295 76.2163 149.892C76.2163 148.489 77.3538 147.351 78.7568 147.351Z" fill="black"/>
<path d="M88.919 147.351C90.3221 147.351 91.4595 148.489 91.4595 149.892C91.4595 151.295 90.3221 152.432 88.919 152.432C87.5159 152.432 86.3784 151.295 86.3784 149.892C86.3784 148.489 87.5159 147.351 88.919 147.351Z" fill="black"/>
<path d="M94 147.351C95.4032 147.351 96.5406 148.489 96.5406 149.892C96.5406 151.295 95.4032 152.432 94 152.432C92.5969 152.432 91.4595 151.295 91.4595 149.892C91.4595 148.489 92.5969 147.351 94 147.351Z" fill="black"/>
<path d="M129.568 147.351C130.971 147.351 132.108 148.489 132.108 149.892C132.108 151.295 130.971 152.432 129.568 152.432C128.165 152.432 127.027 151.295 127.027 149.892C127.027 148.489 128.165 147.351 129.568 147.351Z" fill="black"/>
<path d="M134.649 147.351C136.052 147.351 137.189 148.489 137.189 149.892C137.189 151.295 136.052 152.432 134.649 152.432C133.246 152.432 132.108 151.295 132.108 149.892C132.108 148.489 133.246 147.351 134.649 147.351Z" fill="black"/>
<path d="M154.973 147.351C156.376 147.351 157.513 148.489 157.513 149.892C157.513 151.295 156.376 152.432 154.973 152.432C153.57 152.432 152.432 151.295 152.432 149.892C152.432 148.489 153.57 147.351 154.973 147.351Z" fill="black"/>
<path d="M165.135 147.351C166.538 147.351 167.676 148.489 167.676 149.892C167.676 151.295 166.538 152.432 165.135 152.432C163.732 152.432 162.594 151.295 162.594 149.892C162.594 148.489 163.732 147.351 165.135 147.351Z" fill="black"/>
<path d="M170.216 147.351C171.619 147.351 172.757 148.489 172.757 149.892C172.757 151.295 171.619 152.432 170.216 152.432C168.813 152.432 167.676 151.295 167.676 149.892C167.676 148.489 168.813 147.351 170.216 147.351Z" fill="black"/>
<path d="M63.5134 152.432C64.9166 152.432 66.054 153.57 66.054 154.973C66.054 156.376 64.9166 157.514 63.5134 157.514C62.1104 157.514 60.9729 156.376 60.9729 154.973C60.9729 153.57 62.1104 152.432 63.5134 152.432Z" fill="black"/>
<path d="M68.5945 152.432C69.9977 152.432 71.135 153.57 71.135 154.973C71.135 156.376 69.9977 157.514 68.5945 157.514C67.1914 157.514 66.054 156.376 66.054 154.973C66.054 153.57 67.1914 152.432 68.5945 152.432Z" fill="black"/>
<path d="M73.6758 152.432C75.079 152.432 76.2163 153.57 76.2163 154.973C76.2163 156.376 75.079 157.514 73.6758 157.514C72.2727 157.514 71.1353 156.376 71.1353 154.973C71.1353 153.57 72.2727 152.432 73.6758 152.432Z" fill="black"/>
<path d="M78.7568 152.432C80.16 152.432 81.2974 153.57 81.2974 154.973C81.2974 156.376 80.16 157.514 78.7568 157.514C77.3538 157.514 76.2163 156.376 76.2163 154.973C76.2163 153.57 77.3538 152.432 78.7568 152.432Z" fill="black"/>
<path d="M83.8379 152.432C85.2411 152.432 86.3784 153.57 86.3784 154.973C86.3784 156.376 85.2411 157.514 83.8379 157.514C82.4348 157.514 81.2974 156.376 81.2974 154.973C81.2974 153.57 82.4348 152.432 83.8379 152.432Z" fill="black"/>
<path d="M88.919 152.432C90.3221 152.432 91.4595 153.57 91.4595 154.973C91.4595 156.376 90.3221 157.514 88.919 157.514C87.5159 157.514 86.3784 156.376 86.3784 154.973C86.3784 153.57 87.5159 152.432 88.919 152.432Z" fill="black"/>
<path d="M109.243 152.432C110.646 152.432 111.784 153.57 111.784 154.973C111.784 156.376 110.646 157.514 109.243 157.514C107.84 157.514 106.703 156.376 106.703 154.973C106.703 153.57 107.84 152.432 109.243 152.432Z" fill="black"/>
<path d="M119.405 152.432C120.808 152.432 121.946 153.57 121.946 154.973C121.946 156.376 120.808 157.514 119.405 157.514C118.002 157.514 116.865 156.376 116.865 154.973C116.865 153.57 118.002 152.432 119.405 152.432Z" fill="black"/>
<path d="M134.649 152.432C136.052 152.432 137.189 153.57 137.189 154.973C137.189 156.376 136.052 157.514 134.649 157.514C133.246 157.514 132.108 156.376 132.108 154.973C132.108 153.57 133.246 152.432 134.649 152.432Z" fill="black"/>
<path d="M139.73 152.432C141.133 152.432 142.27 153.57 142.27 154.973C142.27 156.376 141.133 157.514 139.73 157.514C138.327 157.514 137.189 156.376 137.189 154.973C137.189 153.57 138.327 152.432 139.73 152.432Z" fill="black"/>
<path d="M144.811 152.432C146.214 152.432 147.351 153.57 147.351 154.973C147.351 156.376 146.214 157.514 144.811 157.514C143.408 157.514 142.27 156.376 142.27 154.973C142.27 153.57 143.408 152.432 144.811 152.432Z" fill="black"/>
<path d="M149.892 152.432C151.295 152.432 152.432 153.57 152.432 154.973C152.432 156.376 151.295 157.514 149.892 157.514C148.489 157.514 147.351 156.376 147.351 154.973C147.351 153.57 148.489 152.432 149.892 152.432Z" fill="black"/>
<path d="M154.973 152.432C156.376 152.432 157.513 153.57 157.513 154.973C157.513 156.376 156.376 157.514 154.973 157.514C153.57 157.514 152.432 156.376 152.432 154.973C152.432 153.57 153.57 152.432 154.973 152.432Z" fill="black"/>
<path d="M170.216 152.432C171.619 152.432 172.757 153.57 172.757 154.973C172.757 156.376 171.619 157.514 170.216 157.514C168.813 157.514 167.676 156.376 167.676 154.973C167.676 153.57 168.813 152.432 170.216 152.432Z" fill="black"/>
<path d="M175.297 152.432C176.701 152.432 177.838 153.57 177.838 154.973C177.838 156.376 176.701 157.514 175.297 157.514C173.894 157.514 172.757 156.376 172.757 154.973C172.757 153.57 173.894 152.432 175.297 152.432Z" fill="black"/>
<path d="M58.4324 157.514C59.8355 157.514 60.9729 158.651 60.9729 160.054C60.9729 161.457 59.8355 162.595 58.4324 162.595C57.0293 162.595 55.8918 161.457 55.8918 160.054C55.8918 158.651 57.0293 157.514 58.4324 157.514Z" fill="black"/>
<path d="M83.8379 157.514C85.2411 157.514 86.3784 158.651 86.3784 160.054C86.3784 161.457 85.2411 162.595 83.8379 162.595C82.4348 162.595 81.2974 161.457 81.2974 160.054C81.2974 158.651 82.4348 157.514 83.8379 157.514Z" fill="black"/>
<path d="M88.919 157.514C90.3221 157.514 91.4595 158.651 91.4595 160.054C91.4595 161.457 90.3221 162.595 88.919 162.595C87.5159 162.595 86.3784 161.457 86.3784 160.054C86.3784 158.651 87.5159 157.514 88.919 157.514Z" fill="black"/>
<path d="M94 157.514C95.4032 157.514 96.5406 158.651 96.5406 160.054C96.5406 161.457 95.4032 162.595 94 162.595C92.5969 162.595 91.4595 161.457 91.4595 160.054C91.4595 158.651 92.5969 157.514 94 157.514Z" fill="black"/>
<path d="M99.0811 157.514C100.484 157.514 101.622 158.651 101.622 160.054C101.622 161.457 100.484 162.595 99.0811 162.595C97.678 162.595 96.5405 161.457 96.5405 160.054C96.5405 158.651 97.678 157.514 99.0811 157.514Z" fill="black"/>
<path d="M104.162 157.514C105.565 157.514 106.703 158.651 106.703 160.054C106.703 161.457 105.565 162.595 104.162 162.595C102.759 162.595 101.622 161.457 101.622 160.054C101.622 158.651 102.759 157.514 104.162 157.514Z" fill="black"/>
<path d="M109.243 157.514C110.646 157.514 111.784 158.651 111.784 160.054C111.784 161.457 110.646 162.595 109.243 162.595C107.84 162.595 106.703 161.457 106.703 160.054C106.703 158.651 107.84 157.514 109.243 157.514Z" fill="black"/>
<path d="M114.324 157.514C115.727 157.514 116.865 158.651 116.865 160.054C116.865 161.457 115.727 162.595 114.324 162.595C112.921 162.595 111.784 161.457 111.784 160.054C111.784 158.651 112.921 157.514 114.324 157.514Z" fill="black"/>
<path d="M124.487 157.514C125.89 157.514 127.027 158.651 127.027 160.054C127.027 161.457 125.89 162.595 124.487 162.595C123.083 162.595 121.946 161.457 121.946 160.054C121.946 158.651 123.083 157.514 124.487 157.514Z" fill="black"/>
<path d="M129.568 157.514C130.971 157.514 132.108 158.651 132.108 160.054C132.108 161.457 130.971 162.595 129.568 162.595C128.165 162.595 127.027 161.457 127.027 160.054C127.027 158.651 128.165 157.514 129.568 157.514Z" fill="black"/>
<path d="M139.73 157.514C141.133 157.514 142.27 158.651 142.27 160.054C142.27 161.457 141.133 162.595 139.73 162.595C138.327 162.595 137.189 161.457 137.189 160.054C137.189 158.651 138.327 157.514 139.73 157.514Z" fill="black"/>
<path d="M149.892 157.514C151.295 157.514 152.432 158.651 152.432 160.054C152.432 161.457 151.295 162.595 149.892 162.595C148.489 162.595 147.351 161.457 147.351 160.054C147.351 158.651 148.489 157.514 149.892 157.514Z" fill="black"/>
<path d="M154.973 157.514C156.376 157.514 157.513 158.651 157.513 160.054C157.513 161.457 156.376 162.595 154.973 162.595C153.57 162.595 152.432 161.457 152.432 160.054C152.432 158.651 153.57 157.514 154.973 157.514Z" fill="black"/>
<path d="M160.054 157.514C161.457 157.514 162.595 158.651 162.595 160.054C162.595 161.457 161.457 162.595 160.054 162.595C158.651 162.595 157.513 161.457 157.513 160.054C157.513 158.651 158.651 157.514 160.054 157.514Z" fill="black"/>
<path d="M175.297 157.514C176.701 157.514 177.838 158.651 177.838 160.054C177.838 161.457 176.701 162.595 175.297 162.595C173.894 162.595 172.757 161.457 172.757 160.054C172.757 158.651 173.894 157.514 175.297 157.514Z" fill="black"/>
<path d="M58.4324 162.595C59.8355 162.595 60.9729 163.732 60.9729 165.135C60.9729 166.538 59.8355 167.676 58.4324 167.676C57.0293 167.676 55.8918 166.538 55.8918 165.135C55.8918 163.732 57.0293 162.595 58.4324 162.595Z" fill="black"/>
<path d="M68.5945 162.595C69.9977 162.595 71.135 163.732 71.135 165.135C71.135 166.538 69.9977 167.676 68.5945 167.676C67.1914 167.676 66.054 166.538 66.054 165.135C66.054 163.732 67.1914 162.595 68.5945 162.595Z" fill="black"/>
<path d="M73.6758 162.595C75.079 162.595 76.2163 163.732 76.2163 165.135C76.2163 166.538 75.079 167.676 73.6758 167.676C72.2727 167.676 71.1353 166.538 71.1353 165.135C71.1353 163.732 72.2727 162.595 73.6758 162.595Z" fill="black"/>
<path d="M88.919 162.595C90.3221 162.595 91.4595 163.732 91.4595 165.135C91.4595 166.538 90.3221 167.676 88.919 167.676C87.5159 167.676 86.3784 166.538 86.3784 165.135C86.3784 163.732 87.5159 162.595 88.919 162.595Z" fill="black"/>
<path d="M99.0811 162.595C100.484 162.595 101.622 163.732 101.622 165.135C101.622 166.538 100.484 167.676 99.0811 167.676C97.678 167.676 96.5405 166.538 96.5405 165.135C96.5405 163.732 97.678 162.595 99.0811 162.595Z" fill="black"/>
<path d="M119.405 162.595C120.808 162.595 121.946 163.732 121.946 165.135C121.946 166.538 120.808 167.676 119.405 167.676C118.002 167.676 116.865 166.538 116.865 165.135C116.865 163.732 118.002 162.595 119.405 162.595Z" fill="black"/>
<path d="M154.973 162.595C156.376 162.595 157.513 163.732 157.513 165.135C157.513 166.538 156.376 167.676 154.973 167.676C153.57 167.676 152.432 166.538 152.432 165.135C152.432 163.732 153.57 162.595 154.973 162.595Z" fill="black"/>
<path d="M170.216 162.595C171.619 162.595 172.757 163.732 172.757 165.135C172.757 166.538 171.619 167.676 170.216 167.676C168.813 167.676 167.676 166.538 167.676 165.135C167.676 163.732 168.813 162.595 170.216 162.595Z" fill="black"/>
<path d="M175.297 162.595C176.701 162.595 177.838 163.732 177.838 165.135C177.838 166.538 176.701 167.676 175.297 167.676C173.894 167.676 172.757 166.538 172.757 165.135C172.757 163.732 173.894 162.595 175.297 162.595Z" fill="black"/>
<path d="M58.4324 167.676C59.8355 167.676 60.9729 168.813 60.9729 170.216C60.9729 171.619 59.8355 172.757 58.4324 172.757C57.0293 172.757 55.8918 171.619 55.8918 170.216C55.8918 168.813 57.0293 167.676 58.4324 167.676Z" fill="black"/>
<path d="M68.5945 167.676C69.9977 167.676 71.135 168.813 71.135 170.216C71.135 171.619 69.9977 172.757 68.5945 172.757C67.1914 172.757 66.054 171.619 66.054 170.216C66.054 168.813 67.1914 167.676 68.5945 167.676Z" fill="black"/>
<path d="M73.6758 167.676C75.079 167.676 76.2163 168.813 76.2163 170.216C76.2163 171.619 75.079 172.757 73.6758 172.757C72.2727 172.757 71.1353 171.619 71.1353 170.216C71.1353 168.813 72.2727 167.676 73.6758 167.676Z" fill="black"/>
<path d="M88.919 167.676C90.3221 167.676 91.4595 168.813 91.4595 170.216C91.4595 171.619 90.3221 172.757 88.919 172.757C87.5159 172.757 86.3784 171.619 86.3784 170.216C86.3784 168.813 87.5159 167.676 88.919 167.676Z" fill="black"/>
<path d="M99.0811 167.676C100.484 167.676 101.622 168.813 101.622 170.216C101.622 171.619 100.484 172.757 99.0811 172.757C97.678 172.757 96.5405 171.619 96.5405 170.216C96.5405 168.813 97.678 167.676 99.0811 167.676Z" fill="black"/>
<path d="M109.243 167.676C110.646 167.676 111.784 168.813 111.784 170.216C111.784 171.619 110.646 172.757 109.243 172.757C107.84 172.757 106.703 171.619 106.703 170.216C106.703 168.813 107.84 167.676 109.243 167.676Z" fill="black"/>
<path d="M114.324 167.676C115.727 167.676 116.865 168.813 116.865 170.216C116.865 171.619 115.727 172.757 114.324 172.757C112.921 172.757 111.784 171.619 111.784 170.216C111.784 168.813 112.921 167.676 114.324 167.676Z" fill="black"/>
<path d="M124.487 167.676C125.89 167.676 127.027 168.813 127.027 170.216C127.027 171.619 125.89 172.757 124.487 172.757C123.083 172.757 121.946 171.619 121.946 170.216C121.946 168.813 123.083 167.676 124.487 167.676Z" fill="black"/>
<path d="M139.73 167.676C141.133 167.676 142.27 168.813 142.27 170.216C142.27 171.619 141.133 172.757 139.73 172.757C138.327 172.757 137.189 171.619 137.189 170.216C137.189 168.813 138.327 167.676 139.73 167.676Z" fill="black"/>
<path d="M144.811 167.676C146.214 167.676 147.351 168.813 147.351 170.216C147.351 171.619 146.214 172.757 144.811 172.757C143.408 172.757 142.27 171.619 142.27 170.216C142.27 168.813 143.408 167.676 144.811 167.676Z" fill="black"/>
<path d="M160.054 167.676C161.457 167.676 162.595 168.813 162.595 170.216C162.595 171.619 161.457 172.757 160.054 172.757C158.651 172.757 157.513 171.619 157.513 170.216C157.513 168.813 158.651 167.676 160.054 167.676Z" fill="black"/>
<path d="M165.135 167.676C166.538 167.676 167.676 168.813 167.676 170.216C167.676 171.619 166.538 172.757 165.135 172.757C163.732 172.757 162.594 171.619 162.594 170.216C162.594 168.813 163.732 167.676 165.135 167.676Z" fill="black"/>
<path d="M58.4324 172.757C59.8355 172.757 60.9729 173.894 60.9729 175.297C60.9729 176.701 59.8355 177.838 58.4324 177.838C57.0293 177.838 55.8918 176.701 55.8918 175.297C55.8918 173.894 57.0293 172.757 58.4324 172.757Z" fill="black"/>
<path d="M63.5134 172.757C64.9166 172.757 66.054 173.894 66.054 175.297C66.054 176.701 64.9166 177.838 63.5134 177.838C62.1104 177.838 60.9729 176.701 60.9729 175.297C60.9729 173.894 62.1104 172.757 63.5134 172.757Z" fill="black"/>
<path d="M78.7568 172.757C80.16 172.757 81.2974 173.894 81.2974 175.297C81.2974 176.701 80.16 177.838 78.7568 177.838C77.3538 177.838 76.2163 176.701 76.2163 175.297C76.2163 173.894 77.3538 172.757 78.7568 172.757Z" fill="black"/>
<path d="M94 172.757C95.4032 172.757 96.5406 173.894 96.5406 175.297C96.5406 176.701 95.4032 177.838 94 177.838C92.5969 177.838 91.4595 176.701 91.4595 175.297C91.4595 173.894 92.5969 172.757 94 172.757Z" fill="black"/>
<path d="M99.0811 172.757C100.484 172.757 101.622 173.894 101.622 175.297C101.622 176.701 100.484 177.838 99.0811 177.838C97.678 177.838 96.5405 176.701 96.5405 175.297C96.5405 173.894 97.678 172.757 99.0811 172.757Z" fill="black"/>
<path d="M119.405 172.757C120.808 172.757 121.946 173.894 121.946 175.297C121.946 176.701 120.808 177.838 119.405 177.838C118.002 177.838 116.865 176.701 116.865 175.297C116.865 173.894 118.002 172.757 119.405 172.757Z" fill="black"/>
<path d="M129.568 172.757C130.971 172.757 132.108 173.894 132.108 175.297C132.108 176.701 130.971 177.838 129.568 177.838C128.165 177.838 127.027 176.701 127.027 175.297C127.027 173.894 128.165 172.757 129.568 172.757Z" fill="black"/>
<path d="M134.649 172.757C136.052 172.757 137.189 173.894 137.189 175.297C137.189 176.701 136.052 177.838 134.649 177.838C133.246 177.838 132.108 176.701 132.108 175.297C132.108 173.894 133.246 172.757 134.649 172.757Z" fill="black"/>
<path d="M139.73 172.757C141.133 172.757 142.27 173.894 142.27 175.297C142.27 176.701 141.133 177.838 139.73 177.838C138.327 177.838 137.189 176.701 137.189 175.297C137.189 173.894 138.327 172.757 139.73 172.757Z" fill="black"/>
<path d="M170.216 172.757C171.619 172.757 172.757 173.894 172.757 175.297C172.757 176.701 171.619 177.838 170.216 177.838C168.813 177.838 167.676 176.701 167.676 175.297C167.676 173.894 168.813 172.757 170.216 172.757Z" fill="black"/>
<path d="M33.5866 10.1651H22.3052C16.8072 10.1651 12.1493 13.7976 10.6601 18.7625C10.506 19.2761 10.3858 19.8039 10.3022 20.3434C10.2101 20.9388 10.1621 21.5485 10.1621 22.1691V33.7183C10.1621 40.3406 15.6111 45.7259 22.3052 45.7259L27.9459 45.7269L33.5866 45.7255C40.2804 45.7255 45.7297 40.3402 45.7297 33.7179V22.1691C45.7297 15.55 40.2807 10.1651 33.5866 10.1651ZM40.3945 33.7183C40.3945 37.3974 37.3407 40.3907 33.5851 40.3907L27.9459 40.3918L22.3067 40.3904C18.5511 40.3904 15.4972 37.397 15.4972 33.7183V22.1691C15.4972 21.0199 15.7953 19.938 16.3199 18.9926C16.825 18.0831 17.5395 17.301 18.3999 16.7088C19.5061 15.9473 20.853 15.5002 22.3049 15.5002H33.5866C37.3407 15.5002 40.3945 18.4918 40.3945 22.1691V33.7183Z" fill="black"/>
<path d="M165.695 10.1651H154.413C148.915 10.1651 144.257 13.7976 142.768 18.7625C142.614 19.2761 142.494 19.8039 142.41 20.3434C142.318 20.9388 142.27 21.5485 142.27 22.1691V33.7183C142.27 40.3406 147.719 45.7259 154.413 45.7259L160.054 45.7269L165.695 45.7255C172.389 45.7255 177.838 40.3402 177.838 33.7179V22.1691C177.838 15.55 172.389 10.1651 165.695 10.1651ZM172.503 33.7183C172.503 37.3974 169.449 40.3907 165.693 40.3907L160.054 40.3918L154.415 40.3904C150.659 40.3904 147.605 37.397 147.605 33.7183V22.1691C147.605 21.0199 147.903 19.938 148.428 18.9926C148.933 18.0831 149.648 17.301 150.508 16.7088C151.614 15.9473 152.961 15.5002 154.413 15.5002H165.695C169.449 15.5002 172.503 18.4918 172.503 22.1691V33.7183Z" fill="black"/>
<path d="M33.5866 142.273H22.3052C16.8072 142.273 12.1493 145.906 10.6601 150.871C10.506 151.384 10.3858 151.912 10.3022 152.452C10.2101 153.047 10.1621 153.657 10.1621 154.277V165.826C10.1621 172.449 15.6111 177.834 22.3052 177.834L27.9459 177.835L33.5866 177.834C40.2804 177.834 45.7297 172.448 45.7297 165.826V154.277C45.7297 147.658 40.2807 142.273 33.5866 142.273ZM40.3945 165.826C40.3945 169.505 37.3407 172.499 33.5851 172.499L27.9459 172.5L22.3067 172.499C18.5511 172.499 15.4972 169.505 15.4972 165.826V154.277C15.4972 153.128 15.7953 152.046 16.3199 151.101C16.825 150.191 17.5395 149.409 18.3999 148.817C19.5061 148.055 20.853 147.608 22.3049 147.608H33.5866C37.3407 147.608 40.3945 150.6 40.3945 154.277V165.826Z" fill="black"/>
<path d="M24.4936 35.5676C22.1934 35.5676 20.3223 33.7335 20.3223 31.4812V24.4086C20.3223 23.705 20.5052 23.0429 20.8254 22.4635C21.1347 21.9059 21.5725 21.4266 22.0998 21.065C22.777 20.5989 23.6026 20.3244 24.4913 20.3244H31.4006C33.6987 20.3244 35.5698 22.1563 35.5698 24.4085V31.4811C35.5698 33.7332 33.6988 35.5675 31.4006 35.5675H27.946L24.4936 35.5676Z" fill="#00C386"/>
<path d="M156.602 35.5676C154.302 35.5676 152.43 33.7335 152.43 31.4812V24.4086C152.43 23.705 152.613 23.0429 152.934 22.4635C153.243 21.9059 153.681 21.4266 154.208 21.065C154.885 20.5989 155.711 20.3244 156.599 20.3244H163.509C165.807 20.3244 167.678 22.1563 167.678 24.4085V31.4811C167.678 33.7332 165.807 35.5675 163.509 35.5675H160.054L156.602 35.5676Z" fill="#00C386"/>
<path d="M24.4936 167.676C22.1934 167.676 20.3223 165.842 20.3223 163.589V156.517C20.3223 155.813 20.5052 155.151 20.8254 154.572C21.1347 154.014 21.5725 153.535 22.0998 153.173C22.777 152.707 23.6026 152.432 24.4913 152.432H31.4006C33.6987 152.432 35.5698 154.264 35.5698 156.517V163.589C35.5698 165.841 33.6988 167.676 31.4006 167.676H27.946L24.4936 167.676Z" fill="#00C386"/>
<path fill-rule="evenodd" clip-rule="evenodd" d="M97.2443 71.424H88.893L74.3808 82.2133L81.2262 102.685H86.5656L80.6785 84.0115L97.2443 71.424ZM117.37 90.7894L114.632 82.2133L100.119 71.424L82.4583 84.5648L84.2381 89.9594C90.4937 85.5839 100.119 78.0636 100.119 78.0636L117.37 90.7894ZM97.8611 81.9361C97.1458 82.5113 96.4305 83.0865 95.6015 83.7349L111.893 95.3541L105.596 115.411L112.578 110.155L117.781 93.0026L100.119 80.1384C99.2909 80.7865 98.576 81.3613 97.8611 81.9361ZM105.185 92.5877L109.977 95.9073L103.405 116.794H86.5656L78.6249 111.676H99.161L105.185 92.5877ZM98.0658 109.878L99.5718 104.483H80.2678L73.1486 84.5648L70.5474 93.0026L76.1606 109.878H98.0658Z" fill="#00C386"/>
</g>
<defs>
<clipPath id="clip0_671_406">
<rect width="188" height="188" rx="24" fill="white"/>
</clipPath>
</defs>
</svg>
