<svg width="48" height="48" viewBox="0 0 48 48" fill="none" xmlns="http://www.w3.org/2000/svg">
<path d="M24 41.0195C26.123 42.873 28.9266 44 32 44C38.6274 44 44 38.7595 44 32.295C44 26.8972 40.2541 22.3527 35.1597 21" stroke="#EDA243" stroke-width="4" stroke-linecap="round" stroke-linejoin="round"/>
<path d="M32 28V33.0909L35.1818 35" stroke="#EDA243" stroke-width="2.54545" stroke-linecap="round" stroke-linejoin="round"/>
<path d="M12.8404 20.4203C7.74587 21.8072 4 26.4661 4 32C4 38.6274 9.37258 44 16 44C22.6274 44 28 38.6274 28 32C28 30.439 27.7019 28.9476 27.1596 27.5797M24 28C17.3726 28 12 22.6274 12 16" stroke="#619BF8" stroke-width="4" stroke-linecap="round" stroke-linejoin="round"/>
<path d="M15 28V33.0909L18.1818 35" stroke="#619BF8" stroke-width="2.54545" stroke-linecap="round" stroke-linejoin="round"/>
<path d="M24 28C30.6274 28 36 22.6274 36 16C36 9.37258 30.6274 4 24 4C17.3726 4 12 9.37258 12 16C12 22.6274 17.3726 28 24 28Z" stroke="#00C386" stroke-width="4" stroke-linecap="round" stroke-linejoin="round"/>
<path d="M24 12V17.0909L27.1818 19" stroke="#00C386" stroke-width="2.54545" stroke-linecap="round" stroke-linejoin="round"/>
</svg>
