<svg width="48" height="48" viewBox="0 0 48 48" fill="none" xmlns="http://www.w3.org/2000/svg">
<path opacity="0.12" d="M6 14.9333L6 34.0667C6 37.8937 6 39.8072 6.65396 41.2689C7.2292 42.5547 8.14708 43.6001 9.27605 44.2552C10.5595 45 12.2397 45 15.6 45L24 45C24 45 27.1065 36.5499 30.5 32C34.1359 27.1252 42 21.5 42 21.5L42 14.9333C42 11.1063 42 9.1928 41.346 7.73107C40.7708 6.44529 39.8529 5.39993 38.7239 4.74479C37.4405 4 35.7603 4 32.4 4L15.6 4C12.2397 4 10.5595 4 9.27606 4.74479C8.14708 5.39993 7.2292 6.44529 6.65396 7.73107C6 9.1928 6 11.1063 6 14.9333Z" fill="#00F959"/>
<path d="M32 18V30M24 12V35" stroke="#00C386" stroke-width="4" stroke-linecap="round" stroke-linejoin="round"/>
<path d="M16 20L16 32" stroke="#F32D50" stroke-width="4" stroke-linecap="round" stroke-linejoin="round"/>
<path d="M40 21V13.6C40 10.2397 40 8.55953 39.346 7.27606C38.7708 6.14708 37.8529 5.2292 36.7239 4.65396C35.4405 4 33.7603 4 30.4 4H17.6C14.2397 4 12.5595 4 11.2761 4.65396C10.1471 5.2292 9.2292 6.14708 8.65396 7.27606C8 8.55953 8 10.2397 8 13.6V34.4C8 37.7603 8 39.4405 8.65396 40.7239C9.2292 41.8529 10.1471 42.7708 11.2761 43.346C12.5595 44 14.2397 44 17.6 44H23M44 44L41 41M43 36C43 39.866 39.866 43 36 43C32.134 43 29 39.866 29 36C29 32.134 32.134 29 36 29C39.866 29 43 32.134 43 36Z" stroke="#619BF8" stroke-width="4" stroke-linecap="round" stroke-linejoin="round"/>
</svg>
